<svg width="65" height="65" viewBox="0 0 65 65" fill="none" xmlns="http://www.w3.org/2000/svg">
<g clip-path="url(#clip0_358_1703)">
<path d="M65 0H0V65H65V0Z" fill="#FFEEDA"/>
<path d="M48.8086 38.3567V16.1923C48.7793 14.3331 47.3007 12.8398 45.4414 12.8398H22.3108C17.3187 12.913 13.3074 16.9975 13.3074 22.0043C13.3074 23.6878 13.7613 25.1371 14.4493 26.4108C15.0349 27.4648 15.9572 28.4603 16.8649 29.207C17.1284 29.4119 16.9966 29.3241 17.7872 29.8072C18.8705 30.466 20.1149 30.8027 20.1149 30.8027L20.1002 44.0662C20.1295 44.6957 20.1881 45.2959 20.3637 45.8669C20.8761 47.7407 22.1791 49.1754 23.9358 49.8635C24.6678 50.1563 25.5023 50.3466 26.3953 50.3612L44.8705 50.4198C48.545 50.4198 51.5315 47.4333 51.5315 43.7441C51.5462 41.5482 50.4482 39.5865 48.8086 38.3567Z" fill="#FFEEDA"/>
<path d="M49.2624 43.9045C49.1892 46.2615 47.2421 48.1646 44.8559 48.1646L32.1487 48.1207C33.1588 46.9495 33.7736 45.427 33.7736 43.7581C33.7736 41.1522 32.2218 39.3516 32.2218 39.3516H44.8705C47.3007 39.3516 49.277 41.3279 49.277 43.7581L49.2624 43.9045Z" fill="#EBC28E"/>
<path d="M18.08 27.3321C16.616 25.9414 15.5912 24.1553 15.5912 22.0179V21.7983C15.7083 18.1677 18.6948 15.2398 22.3255 15.1373H45.4561C46.0563 15.1666 46.5394 15.5911 46.5394 16.206V35.7792C47.0664 35.867 47.33 35.9402 47.8423 36.1305C48.2523 36.2769 48.8086 36.599 48.8086 36.599V16.206C48.7793 14.3468 47.3007 12.8535 45.4414 12.8535H22.3108C17.3187 12.9267 13.3074 17.0112 13.3074 22.0179C13.3074 24.9312 14.6396 27.42 16.8063 29.1621C16.9527 29.2792 17.0991 29.4402 17.4797 29.4402C18.1532 29.4402 18.6363 28.8986 18.607 28.313C18.607 27.8152 18.3874 27.6396 18.08 27.3321Z" fill="#101010"/>
<path d="M44.8559 37.0678H26.7173C25.5023 37.0824 24.5214 38.0633 24.5214 39.2783V41.8842C24.5507 43.0847 25.5755 44.1094 26.8052 44.1094H28.152V41.8842H26.7905V39.3369C26.7905 39.3369 27.1273 39.3369 27.5225 39.3369C29.8209 39.3369 31.5045 41.4597 31.5045 43.7434C31.5045 45.7637 29.6599 48.3403 26.5856 48.1353C23.8626 47.9597 22.384 45.5295 22.384 43.7434V21.6376C22.384 20.6421 21.5642 19.8223 20.5687 19.8223H18.7534V22.0914H20.1002V43.7581C20.027 48.1646 23.2331 50.3752 26.5856 50.3752L44.8705 50.4338C48.545 50.4338 51.5315 47.4473 51.5315 43.7581C51.5462 40.0689 48.545 37.0678 44.8559 37.0678ZM49.2624 43.9045C49.1892 46.2615 47.2421 48.1646 44.8559 48.1646L32.1487 48.1207C33.1588 46.9495 33.7736 45.427 33.7736 43.7581C33.7736 41.1522 32.2218 39.3515 32.2218 39.3515H44.8705C47.3007 39.3515 49.277 41.3279 49.277 43.7581L49.2624 43.9045Z" fill="#101010"/>
<path d="M39.9662 22.5016H26.2928V20.2324H39.9662C40.5811 20.2324 41.0935 20.7302 41.0935 21.3597C41.1081 21.9892 40.6104 22.5016 39.9662 22.5016Z" fill="#101010"/>
<path d="M39.9662 33.1451H26.2928V30.8906H39.9662C40.5811 30.8906 41.0935 31.3884 41.0935 32.0179C41.1081 32.6327 40.6104 33.1451 39.9662 33.1451Z" fill="#101010"/>
<path d="M42.3818 27.816H26.2928V25.5469H42.3671C42.982 25.5469 43.4944 26.0446 43.4944 26.6741C43.5236 27.3036 43.0113 27.816 42.3818 27.816Z" fill="#101010"/>
</g>
<defs>
<clipPath id="clip0_358_1703">
<rect width="65" height="65" rx="32.5" fill="white"/>
</clipPath>
</defs>
</svg>
