<svg width="66" height="65" viewBox="0 0 66 65" fill="none" xmlns="http://www.w3.org/2000/svg">
<g clip-path="url(#clip0_358_1833)">
<path d="M33 0C51.2271 0 66 14.552 66 32.5C66 50.4509 51.2271 65 33 65C14.7759 65 0 50.4494 0 32.5C0 14.552 14.7759 0 33 0Z" fill="#00D395"/>
<path d="M34.2158 34.7957H46.7553C47.0226 34.7957 47.1488 34.7957 47.1681 34.4505C47.2706 33.1942 47.2706 31.9306 47.1681 30.6729C47.1681 30.4286 47.0448 30.3277 46.7761 30.3277H21.8204C21.5115 30.3277 21.4283 30.4286 21.4283 30.7138V34.3291C21.4283 34.7957 21.4283 34.7957 21.9228 34.7957H34.2158V34.7957ZM45.7677 26.1025C45.8034 26.0104 45.8034 25.9094 45.7677 25.8188C45.5583 25.3698 45.3103 24.9413 45.0223 24.5391C44.5886 23.8517 44.0778 23.2184 43.4957 22.6495C43.2209 22.3058 42.9031 21.9972 42.5467 21.7354C40.7617 20.2393 38.6397 19.1804 36.3587 18.6481C35.2078 18.3936 34.0317 18.2722 32.8526 18.2824H21.7773C21.4684 18.2824 21.4268 18.4038 21.4268 18.6685V25.8787C21.4268 26.1829 21.4268 26.2648 21.8189 26.2648H45.6192C45.6192 26.2648 45.8256 26.2239 45.8672 26.1025H45.7662H45.7677ZM45.7677 39.0209C45.4173 38.9829 45.0638 38.9829 44.7134 39.0209H21.8412C21.5323 39.0209 21.4283 39.0209 21.4283 39.4275V46.4768C21.4283 46.8015 21.4283 46.8834 21.8412 46.8834H32.4011C32.906 46.9214 33.4109 46.8863 33.9054 46.7825C35.438 46.6742 36.9453 46.3466 38.3828 45.807C38.9055 45.6285 39.4104 45.396 39.8871 45.1166H40.0311C42.5066 43.8486 44.5173 41.8567 45.7856 39.4114C45.7856 39.4114 45.9296 39.1043 45.7677 39.0238V39.0209ZM17.2837 50.5382V50.4168V45.6841V44.0797V39.3061C17.2837 39.0414 17.2837 39.0019 16.954 39.0019H12.4781C12.2302 39.0019 12.1277 39.0019 12.1277 38.6772V34.8176H16.9124C17.1797 34.8176 17.2837 34.8176 17.2837 34.4725V30.6538C17.2837 30.4096 17.2837 30.3496 16.954 30.3496H12.4781C12.2302 30.3496 12.1277 30.3496 12.1277 30.025V26.4506C12.1277 26.2268 12.1277 26.1668 12.4574 26.1668H16.8916C17.2005 26.1668 17.2837 26.1668 17.2837 25.7807V14.8324C17.2837 14.5077 17.2837 14.4258 17.6965 14.4258H33.1644C34.2871 14.4697 35.4023 14.591 36.5057 14.7914C38.7793 15.2053 40.9637 16.0053 42.9611 17.1475C44.2857 17.9153 45.5049 18.8426 46.5904 19.9102C47.4072 20.7453 48.1438 21.6491 48.7972 22.6115C49.4461 23.587 49.9852 24.6297 50.4084 25.7193C50.4604 26.003 50.7366 26.1946 51.0247 26.1464H54.7164C55.1901 26.1464 55.1901 26.1464 55.2109 26.5939V29.9255C55.2109 30.2502 55.0877 30.3321 54.7565 30.3321H51.9098C51.6217 30.3321 51.5385 30.3321 51.5593 30.6977C51.6722 31.935 51.6722 33.1767 51.5593 34.414C51.5593 34.7591 51.5593 34.8001 51.9528 34.8001H55.2095C55.3535 34.9829 55.2095 35.1657 55.2095 35.35C55.2302 35.5854 55.2302 35.8238 55.2095 36.0593V38.5178C55.2095 38.8629 55.107 38.9653 54.7966 38.9653H50.8985C50.6267 38.9141 50.3624 39.0852 50.3 39.3514C49.3719 41.728 47.8868 43.8589 45.9682 45.5671C45.2673 46.1887 44.5307 46.7737 43.7615 47.3133C42.9358 47.7813 42.1324 48.2684 41.286 48.6545C39.7282 49.3448 38.0947 49.8537 36.4181 50.1769C34.8261 50.4577 33.2119 50.585 31.5918 50.5631H17.2777V50.5426L17.2837 50.5382Z" fill="white"/>
</g>
<defs>
<clipPath id="clip0_358_1833">
<rect width="66" height="65" fill="white"/>
</clipPath>
</defs>
</svg>
