<svg width="68" height="68" viewBox="0 0 68 68" fill="none" xmlns="http://www.w3.org/2000/svg">
<circle cx="34" cy="34" r="34" fill="#00D395"/>
<path fill-rule="evenodd" clip-rule="evenodd" d="M33.1524 15.1886L21.6253 33.5332C21.4891 33.6453 21.3958 33.7974 21.355 33.9635L21 34.5285L33.8992 41.9933L46.7984 34.5285L34.646 15.1886C34.6105 15.1013 34.56 15.0217 34.4979 14.9528L33.8992 14L33.3005 14.9528C33.2384 15.0217 33.1879 15.1013 33.1524 15.1886ZM33.093 18.3136L24.366 32.2022L33.093 28.0479V18.3136ZM33.093 29.8337L23.773 34.2703L33.093 39.6638V29.8337ZM34.7054 39.6638V29.8522L43.8699 34.3603L34.7054 39.6638ZM34.7054 28.0553V18.3136L43.5651 32.4134L34.7054 28.0553ZM33.8058 44.1783L21 36.7675L33.8992 54.31L46.7984 36.7675L33.9926 44.1783C33.962 44.1748 33.9308 44.173 33.8992 44.173C33.8676 44.173 33.8364 44.1748 33.8058 44.1783ZM33.093 45.6288L26.8684 42.0266L33.093 50.4918V45.6288ZM34.7054 50.4918L40.93 42.0266L34.7054 45.6288V50.4918Z" fill="white"/>
</svg>
