<svg width="65" height="66" viewBox="0 0 65 66" fill="none" xmlns="http://www.w3.org/2000/svg">
<g clip-path="url(#clip0_358_1810)">
<mask id="mask0_358_1810" style="mask-type:alpha" maskUnits="userSpaceOnUse" x="0" y="0" width="65" height="66">
<path d="M0 0H65V65.9999H0V0Z" fill="white"/>
</mask>
<g mask="url(#mask0_358_1810)">
<path fill-rule="evenodd" clip-rule="evenodd" d="M32.5 0C50.4496 0 65 14.7742 65 33C65 51.2243 50.4496 66 32.5 66C14.5504 66 0 51.2243 0 33C0 14.7742 14.5504 0 32.5 0Z" fill="#00D395"/>
</g>
<path fill-rule="evenodd" clip-rule="evenodd" d="M26.4076 55.9447C26.4076 56.721 25.8089 57.162 25.0696 56.9276C15.2431 53.7446 8.11859 44.3887 8.11859 33.3495C8.11859 22.3106 15.2431 12.9543 25.0696 9.77134C25.8089 9.53847 26.4076 9.97797 26.4076 10.7542V12.6705C26.4076 13.1872 26.0132 13.7955 25.5283 13.9638C17.7537 16.8626 12.1844 24.4462 12.1844 33.3363C12.1844 42.2265 17.7537 49.8116 25.5283 52.7088C26.0132 52.8903 26.4076 53.4851 26.4076 54.0037V55.9447Z" fill="white"/>
<path fill-rule="evenodd" clip-rule="evenodd" d="M34.5265 48.8131C34.5265 49.3831 34.0678 49.8489 33.5072 49.8489H31.4804C30.9197 49.8489 30.461 49.3831 30.461 48.8131V45.5525C26.0255 44.9446 23.8595 42.4205 23.273 38.9915C23.1707 38.4084 23.6294 37.8781 24.2159 37.8781H26.5356C27.0197 37.8781 27.4278 38.228 27.5298 38.7189C27.9633 40.7638 29.123 42.3298 32.6784 42.3298C35.3039 42.3298 37.1653 40.8414 37.1653 38.6165C37.1653 36.3898 36.0688 35.549 32.2197 34.9014C26.5356 34.1251 23.8466 32.3776 23.8466 27.8484C23.8466 24.3545 26.4469 21.6373 30.474 21.0545V17.858C30.474 17.2884 30.933 16.8223 31.4933 16.8223H33.5201C34.0807 16.8223 34.5394 17.2884 34.5394 17.858V21.1453C37.8149 21.7415 39.8923 23.6296 40.5682 26.7613C40.6952 27.3575 40.2365 27.9129 39.6379 27.9129H37.4962C37.0375 27.9129 36.6553 27.602 36.5153 27.1494C35.9417 25.1574 34.5394 24.3035 32.1049 24.3035C29.4159 24.3035 28.0265 25.6231 28.0265 27.4734C28.0265 29.4275 28.8172 30.4104 32.9469 31.0198C38.5284 31.796 41.4095 33.4134 41.4095 38.2415C41.4095 41.9034 38.7327 44.867 34.5394 45.5525V48.8131H34.5265Z" fill="white"/>
<path fill-rule="evenodd" clip-rule="evenodd" d="M39.9304 56.9265C39.1918 57.1609 38.5924 56.7199 38.5924 55.9436V54.0289C38.5924 53.4592 38.9366 52.929 39.4718 52.734C47.2463 49.8352 52.8156 42.2516 52.8156 33.3615C52.8156 24.4714 47.2463 16.8877 39.4718 13.989C38.9876 13.8075 38.5924 13.2128 38.5924 12.6941V10.7794C38.5924 10.0031 39.1918 9.5505 39.9304 9.795C49.7569 12.9799 56.8814 22.3357 56.8814 33.3746C56.8692 44.3872 49.7569 53.7304 39.9304 56.9265Z" fill="white"/>
</g>
<defs>
<clipPath id="clip0_358_1810">
<rect width="65" height="66" fill="white"/>
</clipPath>
</defs>
</svg>
