<svg width="65" height="66" viewBox="0 0 65 66" fill="none" xmlns="http://www.w3.org/2000/svg">
<g clip-path="url(#clip0_358_1864)">
<path d="M53.0008 13.8509L51.2161 15.6631C55.4747 20.3919 57.8364 26.5677 57.8364 32.9755C57.8364 39.3834 55.4747 45.5592 51.2161 50.288L53.0008 52.1002C57.7369 46.884 60.3663 40.0491 60.3663 32.9544C60.3663 25.8597 57.7369 19.0248 53.0008 13.8086V13.8509Z" fill="#5A5564"/>
<path d="M15.4675 14.0078C20.1246 9.68364 26.2069 7.28565 32.5176 7.28565C38.8284 7.28565 44.9107 9.68364 49.5678 14.0078L51.3525 12.1956C46.2154 7.38668 39.484 4.7168 32.4968 4.7168C25.5096 4.7168 18.7783 7.38668 13.6411 12.1956L15.4675 14.0078Z" fill="#5A5564"/>
<path d="M13.796 50.3057C9.54238 45.578 7.18384 39.4059 7.18384 33.0023C7.18384 26.5987 9.54238 20.4267 13.796 15.6989L12.0113 13.8867C7.27518 19.1029 4.64575 25.9378 4.64575 33.0325C4.64575 40.1272 7.27518 46.9621 12.0113 52.1783L13.796 50.3057Z" fill="#5A5564"/>
<path d="M49.5443 51.9805C44.8872 56.3047 38.8049 58.7026 32.4942 58.7026C26.1835 58.7026 20.1012 56.3047 15.444 51.9805L13.6593 53.7927C18.7965 58.6016 25.5278 61.2715 32.515 61.2715C39.5022 61.2715 46.2336 58.6016 51.3707 53.7927L49.5443 51.9805Z" fill="#5A5564"/>
<path d="M43.7679 26.9541C43.411 23.1727 40.1985 21.9042 36.1352 21.5176V16.3105H32.9941V21.4209C32.1672 21.4209 31.3224 21.4209 30.4836 21.4209V16.3105H27.3662V21.5538H20.9948V24.9668C20.9948 24.9668 23.3149 24.9245 23.2792 24.9668C23.6976 24.9201 24.1174 25.04 24.4504 25.3015C24.7833 25.5629 25.0033 25.9453 25.0639 26.3682V40.7208C25.055 40.8699 25.0167 41.0157 24.9513 41.1495C24.8859 41.2834 24.7947 41.4026 24.6832 41.5C24.5738 41.5993 24.4457 41.6751 24.3066 41.7229C24.1676 41.7706 24.0205 41.7893 23.8741 41.7779C23.9158 41.8141 21.5897 41.7779 21.5897 41.7779L20.9948 45.5895H27.3068V50.9174H30.4479V45.668H32.9584V50.8932H36.1055V45.6258C41.4121 45.2996 45.1124 43.9706 45.5765 38.9267C45.9513 34.8674 44.0714 33.0552 41.0671 32.3243C42.8934 31.4121 44.0238 29.7208 43.7679 26.9541ZM39.3656 38.2985C39.3656 42.2611 32.6788 41.8081 30.549 41.8081V34.7768C32.6788 34.7828 39.3656 34.1606 39.3656 38.2985ZM37.9081 28.3918C37.9081 32.0162 32.3278 31.5752 30.555 31.5752V25.1842C32.3278 25.1842 37.9081 24.6164 37.9081 28.3918Z" fill="#00D395"/>
<path d="M32.4941 66C26.0667 65.9988 19.784 64.0625 14.4403 60.436C9.09659 56.8094 4.9319 51.6555 2.47279 45.6258C0.0136808 39.5961 -0.629426 32.9614 0.624783 26.5606C1.87899 20.1597 4.9742 14.2803 9.51904 9.66549C14.0639 5.05072 19.8543 1.9079 26.1581 0.634395C32.4619 -0.63911 38.9961 0.0138913 44.9345 2.51083C50.8728 5.00778 55.9487 9.23653 59.5203 14.6624C63.0919 20.0883 64.9988 26.4677 65 32.994C65.0008 37.3286 64.1605 41.6209 62.5272 45.6258C60.8939 49.6306 58.4996 53.2695 55.481 56.3345C52.4624 59.3996 48.8786 61.8308 44.9345 63.4892C40.9903 65.1476 36.763 66.0008 32.4941 66V66ZM32.4941 2.57333C26.5725 2.5781 20.7852 4.36529 15.8637 7.709C10.9422 11.0527 7.10737 15.8028 4.84399 21.359C2.58061 26.9151 1.99024 33.0279 3.1475 38.9247C4.30477 44.8214 7.15772 50.2375 11.3458 54.4883C15.5338 58.739 20.8689 61.6337 26.6768 62.8064C32.4847 63.9792 38.5046 63.3773 43.9756 61.0769C49.4467 58.7765 54.1233 54.8808 57.4144 49.8823C60.7055 44.8837 62.4633 39.0067 62.4657 32.994C62.4673 28.9976 61.693 25.0401 60.1872 21.3478C58.6814 17.6555 56.4736 14.3008 53.69 11.4755C50.9064 8.65022 47.6016 6.40976 43.9647 4.88226C40.3277 3.35475 36.4299 2.57015 32.4941 2.57333V2.57333Z" fill="#282138"/>
</g>
<defs>
<clipPath id="clip0_358_1864">
<rect width="65" height="66" fill="white"/>
</clipPath>
</defs>
</svg>
