<svg width="45" height="45" viewBox="0 0 45 45" fill="none" xmlns="http://www.w3.org/2000/svg">
<path d="M22.5 45C34.9264 45 45 34.9264 45 22.5C45 10.0736 34.9264 0 22.5 0C10.0736 0 0 10.0736 0 22.5C0 34.9264 10.0736 45 22.5 45Z" fill="#627EEA"/>
<path d="M23.2012 5.625V18.0984L33.7438 22.8094L23.2012 5.625Z" fill="white" fill-opacity="0.602"/>
<path d="M23.2003 5.625L12.6562 22.8094L23.2003 18.0984V5.625Z" fill="white"/>
<path d="M23.2012 30.8928V39.3683L33.7509 24.7728L23.2012 30.8928Z" fill="white" fill-opacity="0.602"/>
<path d="M23.2003 39.3683V30.8914L12.6562 24.7728L23.2003 39.3683Z" fill="white"/>
<path d="M23.2012 28.9309L33.7438 22.8094L23.2012 18.1013V28.9309Z" fill="white" fill-opacity="0.2"/>
<path d="M12.6562 22.8094L23.2003 28.9309V18.1013L12.6562 22.8094Z" fill="white" fill-opacity="0.602"/>
</svg>
