<svg width="26" height="26" viewBox="0 0 26 26" fill="none" xmlns="http://www.w3.org/2000/svg">
<path d="M16.9292 25H8.9292V13.8C8.9292 13.3581 9.28737 13 9.7292 13H16.1292C16.5711 13 16.9292 13.3581 16.9292 13.8V25Z" fill="white" stroke="white" stroke-linecap="round" stroke-linejoin="round"/>
<path d="M24.1292 25.0002H16.9292V21.1335C16.9292 20.6916 17.2873 20.3335 17.7292 20.3335H24.1292C24.5711 20.3335 24.9292 20.6916 24.9292 21.1335V24.2002C24.9292 24.642 24.5711 25.0002 24.1292 25.0002Z" fill="white" stroke="white" stroke-linecap="round" stroke-linejoin="round"/>
<path d="M8.9292 24.9998V18.4665C8.9292 18.0246 8.57102 17.6665 8.1292 17.6665H1.7292C1.28737 17.6665 0.929199 18.0246 0.929199 18.4665V24.1998C0.929199 24.6417 1.28737 24.9998 1.7292 24.9998H8.9292Z" fill="white" stroke="white" stroke-linecap="round" stroke-linejoin="round"/>
<path d="M11.3366 3.81767L12.5488 1.24747C12.7044 0.91751 13.154 0.91751 13.3096 1.24747L14.5217 3.81767L17.2325 4.23236C17.5804 4.28558 17.7189 4.73303 17.4672 4.98972L15.506 6.98893L15.9688 9.81332C16.0282 10.176 15.6645 10.4527 15.3533 10.2813L12.9292 8.94708L10.505 10.2813C10.1939 10.4527 9.83009 10.176 9.88953 9.81332L10.3524 6.98893L8.39119 4.98972C8.13939 4.73303 8.27802 4.28558 8.62582 4.23236L11.3366 3.81767Z" stroke="white" stroke-linecap="round" stroke-linejoin="round"/>
</svg>
