<svg width="28" height="24" viewBox="0 0 28 24" fill="none" xmlns="http://www.w3.org/2000/svg">
<path d="M5.71431 6.85449H0V23.9973H5.71431V6.85449Z" fill="white"/>
<path d="M17.101 11.4287C16.798 11.8344 16.6323 12.326 16.6323 12.84C16.6323 13.4745 16.8778 14.0633 17.3237 14.5085C17.7696 14.9544 18.3639 15.1999 18.9923 15.1999C19.6212 15.1999 20.2155 14.9544 20.6608 14.5147C21.5012 13.6743 21.5754 12.3545 20.8779 11.4288L17.101 11.4287Z" fill="white"/>
<path d="M15.9976 20.3369V23.9999H21.7119V20.4396C20.8491 20.7482 19.9295 20.9083 18.992 20.9083C17.9524 20.9084 16.935 20.7086 15.9976 20.3369Z" fill="white"/>
<path d="M10.9296 12.8398C10.9296 10.6858 11.7633 8.66295 13.2889 7.13722C13.4262 6.99998 13.5635 6.86824 13.7119 6.74829V0H7.99768V24H13.7119V18.9369C13.5635 18.8169 13.4262 18.6858 13.2889 18.5486C11.7632 17.0228 10.9296 15 10.9296 12.8398Z" fill="white"/>
<path d="M27.4112 19.2879L24.3281 16.2846C24.9855 15.2679 25.3414 14.0837 25.3414 12.8421C25.3414 11.1434 24.6813 9.54856 23.4832 8.35045C22.2851 7.15234 20.6902 6.49219 18.9915 6.49219C17.2929 6.49219 15.6974 7.15234 14.4999 8.35045C13.3013 9.54856 12.6417 11.1434 12.6417 12.8421C12.6417 14.5408 13.3013 16.1361 14.4994 17.3343C15.6975 18.5323 17.2929 19.1925 18.9916 19.1925C20.2332 19.1925 21.4179 18.8359 22.4346 18.1786L25.4369 21.2606C25.9966 21.9353 26.8225 21.9754 27.4609 21.337C28.0999 20.6992 28.0859 19.846 27.4112 19.2879ZM18.9916 16.25C18.0814 16.25 17.2254 15.8951 16.5814 15.2516C15.938 14.6083 15.5836 13.7522 15.5836 12.8421C15.5836 11.932 15.938 11.0765 16.5814 10.433C17.2254 9.78955 18.0809 9.43466 18.9916 9.43466C19.9012 9.43466 20.7572 9.78955 21.4006 10.433C22.7293 11.7617 22.7293 13.9235 21.4006 15.2522C20.7572 15.8956 19.9017 16.25 18.9916 16.25Z" fill="white"/>
</svg>
