<svg width="32" height="49" viewBox="0 0 32 49" fill="none" xmlns="http://www.w3.org/2000/svg">
<g clip-path="url(#clip0_146_243)">
<g clip-path="url(#clip1_146_243)">
<path d="M9.60027 16.4331C7.39367 16.4331 5.27745 17.3097 3.71715 18.87C2.15684 20.4303 1.28027 22.5465 1.28027 24.7531C1.28027 26.9597 2.15684 29.0759 3.71715 30.6362C5.27745 32.1965 7.39367 33.0731 9.60027 33.0731C11.8069 33.0731 13.9231 32.1965 15.4834 30.6362C17.0437 29.0759 17.9203 26.9597 17.9203 24.7531C17.9203 22.5465 17.0437 20.4303 15.4834 18.87C13.9231 17.3097 11.8069 16.4331 9.60027 16.4331ZM22.7203 17.0731C20.4227 17.0731 18.5603 20.5118 18.5603 24.7531C18.5603 25.5486 18.6256 26.3154 18.7472 27.0366C18.9091 27.9986 19.1708 28.8792 19.51 29.6382C19.6796 30.0178 19.8684 30.3666 20.0739 30.6795C20.4848 31.3054 20.9622 31.7886 21.4832 32.0882C21.8742 32.3122 22.2896 32.4331 22.7203 32.4331C23.151 32.4331 23.5664 32.3122 23.9574 32.0882C24.4784 31.7886 24.9558 31.3054 25.3667 30.6795C25.5721 30.3666 25.7609 30.0178 25.9305 29.6382C26.2697 28.8798 26.5315 27.9986 26.6934 27.0366C26.815 26.3154 26.8803 25.5486 26.8803 24.7531C26.8803 20.5118 25.0179 17.0731 22.7203 17.0731ZM29.1203 17.7131C28.9545 17.7131 28.7945 17.8238 28.6448 18.0299C28.5443 18.1669 28.4483 18.3461 28.358 18.563C28.3126 18.6712 28.2684 18.789 28.2262 18.9157C28.1411 19.1685 28.0617 19.4571 27.9894 19.7752C27.8448 20.412 27.7276 21.171 27.6464 22.0133C27.606 22.4344 27.5747 22.8766 27.5529 23.3349C27.5312 23.7925 27.5203 24.2674 27.5203 24.7531C27.5203 25.2389 27.5312 25.7138 27.5529 26.172C27.574 26.6302 27.6054 27.0725 27.6464 27.4936C27.7276 28.3358 27.8448 29.0942 27.9894 29.7317C28.0617 30.0504 28.1411 30.3384 28.2262 30.5912C28.2684 30.7179 28.3126 30.8357 28.358 30.9438C28.4489 31.1608 28.5449 31.34 28.6448 31.477C28.7945 31.6824 28.9545 31.7931 29.1203 31.7931C30.0041 31.7931 30.7203 28.6411 30.7203 24.7531C30.7203 20.8651 30.0041 17.7131 29.1203 17.7131Z" fill="white"/>
</g>
</g>
<defs>
<clipPath id="clip0_146_243">
<rect width="32" height="33" fill="white" transform="translate(0 8.08984)"/>
</clipPath>
<clipPath id="clip1_146_243">
<rect width="32" height="33" fill="white" transform="translate(0 8.08984)"/>
</clipPath>
</defs>
</svg>
