<svg width="36" height="26" viewBox="0 0 36 26" fill="none" xmlns="http://www.w3.org/2000/svg">
<path d="M36 17.8767C36 13.1355 34.1036 8.5885 30.7279 5.23597C27.3523 1.88343 22.7739 3.6217e-07 18 4.21967e-09C13.2261 -3.53731e-07 8.64774 1.88343 5.27208 5.23597C1.89642 8.5885 7.45256e-07 13.1355 2.44179e-08 17.8767H4.5C4.5 14.3208 5.92232 10.9106 8.45406 8.39615C10.9858 5.88175 14.4196 4.46918 18 4.46918C21.5804 4.46918 25.0142 5.88175 27.5459 8.39615C30.0777 10.9106 31.5 14.3208 31.5 17.8767H36Z" fill="#FF0000"/>
<path d="M9.28227 2.23652C6.46181 3.78716 4.11243 6.06164 2.47961 8.82228C0.846783 11.5829 -0.0095508 14.7284 8.03527e-05 17.9301L4.50006 17.9168C4.49284 15.5155 5.13509 13.1564 6.3597 11.0859C7.58432 9.01541 9.34636 7.30955 11.4617 6.14657L9.28227 2.23652Z" fill="#FECDD3"/>
<path d="M27 2.39502C24.2705 0.829927 21.175 0.00405388 18.0232 1.48862e-05C14.8714 -0.00402411 11.7738 0.813912 9.04026 2.37201L11.2802 6.24819C13.3304 5.07961 15.6536 4.46616 18.0174 4.46919C20.3813 4.47222 22.7029 5.09162 24.75 6.26545L27 2.39502Z" fill="#FB7185"/>
<path d="M5.10547 9.68745L18.5564 16.6087L17.8663 17.7959L5.10547 9.68745Z" fill="black"/>
<path d="M18.2976 16.3917C18.7759 16.6659 18.9958 17.1771 18.7887 17.5333C18.5816 17.8896 18.0259 17.9561 17.5476 17.6818C17.0693 17.4076 16.8495 16.8965 17.0566 16.5402C17.2637 16.1839 17.8193 16.1174 18.2976 16.3917Z" fill="black"/>
<path d="M13.5566 24.3331V24.8701H11.0906V20.5621H11.7296V24.3331H13.5566ZM18.005 22.7161C18.005 23.0381 17.953 23.3341 17.849 23.6041C17.747 23.8721 17.602 24.1041 17.414 24.3001C17.226 24.4941 17.001 24.6451 16.739 24.7531C16.477 24.8611 16.186 24.9151 15.866 24.9151C15.548 24.9151 15.257 24.8611 14.993 24.7531C14.731 24.6451 14.506 24.4941 14.318 24.3001C14.132 24.1041 13.987 23.8721 13.883 23.6041C13.779 23.3341 13.727 23.0381 13.727 22.7161C13.727 22.3961 13.779 22.1011 13.883 21.8311C13.987 21.5611 14.132 21.3291 14.318 21.1351C14.506 20.9391 14.731 20.7871 14.993 20.6791C15.257 20.5691 15.548 20.5141 15.866 20.5141C16.186 20.5141 16.477 20.5691 16.739 20.6791C17.001 20.7871 17.226 20.9391 17.414 21.1351C17.602 21.3291 17.747 21.5611 17.849 21.8311C17.953 22.1011 18.005 22.3961 18.005 22.7161ZM17.351 22.7161C17.351 22.4601 17.316 22.2301 17.246 22.0261C17.176 21.8221 17.076 21.6491 16.946 21.5071C16.818 21.3651 16.662 21.2561 16.478 21.1801C16.296 21.1041 16.092 21.0661 15.866 21.0661C15.64 21.0661 15.435 21.1041 15.251 21.1801C15.069 21.2561 14.913 21.3651 14.783 21.5071C14.653 21.6491 14.553 21.8221 14.483 22.0261C14.413 22.2301 14.378 22.4601 14.378 22.7161C14.378 22.9741 14.413 23.2051 14.483 23.4091C14.553 23.6111 14.653 23.7831 14.783 23.9251C14.913 24.0671 15.069 24.1761 15.251 24.2521C15.435 24.3261 15.64 24.3631 15.866 24.3631C16.092 24.3631 16.296 24.3261 16.478 24.2521C16.662 24.1761 16.818 24.0671 16.946 23.9251C17.076 23.7831 17.176 23.6111 17.246 23.4091C17.316 23.2051 17.351 22.9741 17.351 22.7161ZM24.3621 20.5621L23.0181 24.8701H22.4421L21.3921 21.6751C21.3681 21.6111 21.3471 21.5341 21.3291 21.4441C21.3071 21.5361 21.2861 21.6131 21.2661 21.6751L20.2041 24.8701H19.6311L18.2871 20.5621H18.8211C18.8771 20.5621 18.9241 20.5761 18.9621 20.6041C19.0001 20.6301 19.0251 20.6661 19.0371 20.7121L19.8861 23.5951C19.9021 23.6511 19.9161 23.7121 19.9281 23.7781C19.9421 23.8441 19.9561 23.9131 19.9701 23.9851C19.9841 23.9131 19.9981 23.8441 20.0121 23.7781C20.0281 23.7121 20.0461 23.6511 20.0661 23.5951L21.0381 20.7121C21.0501 20.6721 21.0751 20.6371 21.1131 20.6071C21.1531 20.5771 21.2001 20.5621 21.2541 20.5621H21.4371C21.4931 20.5621 21.5391 20.5761 21.5751 20.6041C21.6111 20.6321 21.6371 20.6681 21.6531 20.7121L22.6221 23.5951C22.6581 23.7051 22.6901 23.8301 22.7181 23.9701C22.7421 23.8321 22.7681 23.7071 22.7961 23.5951L23.6481 20.7121C23.6581 20.6721 23.6831 20.6371 23.7231 20.6071C23.7631 20.5771 23.8101 20.5621 23.8641 20.5621H24.3621Z" fill="black"/>
</svg>
