<svg width="24" height="20" viewBox="0 0 24 20" fill="none" xmlns="http://www.w3.org/2000/svg">
<path d="M6.97457 15.7315V16H5.74157V13.846H6.06107V15.7315H6.97457ZM9.19877 14.923C9.19877 15.084 9.17277 15.232 9.12077 15.367C9.06977 15.501 8.99727 15.617 8.90327 15.715C8.80927 15.812 8.69677 15.8875 8.56577 15.9415C8.43477 15.9955 8.28927 16.0225 8.12927 16.0225C7.97027 16.0225 7.82477 15.9955 7.69277 15.9415C7.56177 15.8875 7.44927 15.812 7.35527 15.715C7.26227 15.617 7.18977 15.501 7.13777 15.367C7.08577 15.232 7.05977 15.084 7.05977 14.923C7.05977 14.763 7.08577 14.6155 7.13777 14.4805C7.18977 14.3455 7.26227 14.2295 7.35527 14.1325C7.44927 14.0345 7.56177 13.9585 7.69277 13.9045C7.82477 13.8495 7.97027 13.822 8.12927 13.822C8.28927 13.822 8.43477 13.8495 8.56577 13.9045C8.69677 13.9585 8.80927 14.0345 8.90327 14.1325C8.99727 14.2295 9.06977 14.3455 9.12077 14.4805C9.17277 14.6155 9.19877 14.763 9.19877 14.923ZM8.87177 14.923C8.87177 14.795 8.85427 14.68 8.81927 14.578C8.78427 14.476 8.73427 14.3895 8.66927 14.3185C8.60527 14.2475 8.52727 14.193 8.43527 14.155C8.34427 14.117 8.24227 14.098 8.12927 14.098C8.01627 14.098 7.91377 14.117 7.82177 14.155C7.73077 14.193 7.65277 14.2475 7.58777 14.3185C7.52277 14.3895 7.47277 14.476 7.43777 14.578C7.40277 14.68 7.38527 14.795 7.38527 14.923C7.38527 15.052 7.40277 15.1675 7.43777 15.2695C7.47277 15.3705 7.52277 15.4565 7.58777 15.5275C7.65277 15.5985 7.73077 15.653 7.82177 15.691C7.91377 15.728 8.01627 15.7465 8.12927 15.7465C8.24227 15.7465 8.34427 15.728 8.43527 15.691C8.52727 15.653 8.60527 15.5985 8.66927 15.5275C8.73427 15.4565 8.78427 15.3705 8.81927 15.2695C8.85427 15.1675 8.87177 15.052 8.87177 14.923ZM12.3773 13.846L11.7053 16H11.4173L10.8923 14.4025C10.8803 14.3705 10.8698 14.332 10.8608 14.287C10.8498 14.333 10.8393 14.3715 10.8293 14.4025L10.2983 16H10.0118L9.33982 13.846H9.60682C9.63482 13.846 9.65832 13.853 9.67732 13.867C9.69632 13.88 9.70882 13.898 9.71482 13.921L10.1393 15.3625C10.1473 15.3905 10.1543 15.421 10.1603 15.454C10.1673 15.487 10.1743 15.5215 10.1813 15.5575C10.1883 15.5215 10.1953 15.487 10.2023 15.454C10.2103 15.421 10.2193 15.3905 10.2293 15.3625L10.7153 13.921C10.7213 13.901 10.7338 13.8835 10.7528 13.8685C10.7728 13.8535 10.7963 13.846 10.8233 13.846H10.9148C10.9428 13.846 10.9658 13.853 10.9838 13.867C11.0018 13.881 11.0148 13.899 11.0228 13.921L11.5073 15.3625C11.5253 15.4175 11.5413 15.48 11.5553 15.55C11.5673 15.481 11.5803 15.4185 11.5943 15.3625L12.0203 13.921C12.0253 13.901 12.0378 13.8835 12.0578 13.8685C12.0778 13.8535 12.1013 13.846 12.1283 13.846H12.3773ZM14.0161 14.884C14.0981 14.884 14.1701 14.874 14.2321 14.854C14.2951 14.834 14.3476 14.806 14.3896 14.77C14.4316 14.733 14.4631 14.6895 14.4841 14.6395C14.5051 14.5885 14.5156 14.5325 14.5156 14.4715C14.5156 14.3475 14.4746 14.254 14.3926 14.191C14.3116 14.128 14.1896 14.0965 14.0266 14.0965H13.7251V14.884H14.0161ZM15.0211 16H14.7361C14.6791 16 14.6376 15.9775 14.6116 15.9325L14.0791 15.1855C14.0621 15.1605 14.0436 15.143 14.0236 15.133C14.0036 15.122 13.9736 15.1165 13.9336 15.1165H13.7251V16H13.4056V13.846H14.0266C14.1656 13.846 14.2851 13.8605 14.3851 13.8895C14.4861 13.9175 14.5691 13.958 14.6341 14.011C14.7001 14.063 14.7486 14.126 14.7796 14.2C14.8116 14.274 14.8276 14.357 14.8276 14.449C14.8276 14.524 14.8161 14.5945 14.7931 14.6605C14.7701 14.7265 14.7361 14.786 14.6911 14.839C14.6471 14.891 14.5931 14.936 14.5291 14.974C14.4651 15.012 14.3926 15.041 14.3116 15.061C14.3516 15.085 14.3861 15.1185 14.4151 15.1615L15.0211 16ZM15.6192 16H15.2982V13.846H15.6192V16ZM17.2653 14.197C17.2553 14.214 17.2448 14.2265 17.2338 14.2345C17.2228 14.2425 17.2088 14.2465 17.1918 14.2465C17.1738 14.2465 17.1533 14.2385 17.1303 14.2225C17.1073 14.2055 17.0783 14.187 17.0433 14.167C17.0093 14.146 16.9683 14.1275 16.9203 14.1115C16.8723 14.0945 16.8148 14.086 16.7478 14.086C16.6848 14.086 16.6293 14.0945 16.5813 14.1115C16.5343 14.1275 16.4948 14.15 16.4628 14.179C16.4308 14.207 16.4063 14.2405 16.3893 14.2795C16.3733 14.3175 16.3653 14.359 16.3653 14.404C16.3653 14.462 16.3798 14.51 16.4088 14.548C16.4388 14.586 16.4778 14.6185 16.5258 14.6455C16.5738 14.6725 16.6283 14.696 16.6893 14.716C16.7503 14.736 16.8128 14.757 16.8768 14.779C16.9408 14.8 17.0033 14.8245 17.0643 14.8525C17.1253 14.8805 17.1798 14.916 17.2278 14.959C17.2758 15.001 17.3143 15.053 17.3433 15.115C17.3733 15.176 17.3883 15.251 17.3883 15.34C17.3883 15.435 17.3718 15.524 17.3388 15.607C17.3068 15.69 17.2598 15.7625 17.1978 15.8245C17.1358 15.8865 17.0593 15.9355 16.9683 15.9715C16.8783 16.0065 16.7758 16.024 16.6608 16.024C16.5918 16.024 16.5248 16.017 16.4598 16.003C16.3948 15.99 16.3333 15.9715 16.2753 15.9475C16.2173 15.9225 16.1628 15.893 16.1118 15.859C16.0618 15.824 16.0168 15.785 15.9768 15.742L16.0683 15.589C16.0773 15.577 16.0878 15.567 16.0998 15.559C16.1128 15.551 16.1273 15.547 16.1433 15.547C16.1643 15.547 16.1883 15.558 16.2153 15.58C16.2433 15.602 16.2773 15.6265 16.3173 15.6535C16.3583 15.6795 16.4068 15.7035 16.4628 15.7255C16.5198 15.7475 16.5888 15.7585 16.6698 15.7585C16.7358 15.7585 16.7948 15.75 16.8468 15.733C16.8988 15.715 16.9423 15.69 16.9773 15.658C17.0133 15.625 17.0408 15.5855 17.0598 15.5395C17.0788 15.4935 17.0883 15.4425 17.0883 15.3865C17.0883 15.3235 17.0738 15.272 17.0448 15.232C17.0158 15.192 16.9773 15.1585 16.9293 15.1315C16.8813 15.1045 16.8268 15.0815 16.7658 15.0625C16.7048 15.0435 16.6423 15.024 16.5783 15.004C16.5143 14.983 16.4518 14.959 16.3908 14.932C16.3298 14.905 16.2753 14.87 16.2273 14.827C16.1793 14.783 16.1408 14.7285 16.1118 14.6635C16.0828 14.5975 16.0683 14.5165 16.0683 14.4205C16.0683 14.3435 16.0833 14.269 16.1133 14.197C16.1433 14.125 16.1868 14.0615 16.2438 14.0065C16.3018 13.9505 16.3728 13.906 16.4568 13.873C16.5408 13.839 16.6368 13.822 16.7448 13.822C16.8658 13.822 16.9768 13.8415 17.0778 13.8805C17.1798 13.9185 17.2683 13.9735 17.3433 14.0455L17.2653 14.197ZM18.1021 14.7775H18.2071C18.2451 14.7775 18.2756 14.773 18.2986 14.764C18.3226 14.754 18.3441 14.7375 18.3631 14.7145L19.0486 13.918C19.0706 13.891 19.0931 13.8725 19.1161 13.8625C19.1391 13.8515 19.1676 13.846 19.2016 13.846H19.4746L18.6766 14.764C18.6566 14.79 18.6366 14.811 18.6166 14.827C18.5976 14.843 18.5776 14.8565 18.5566 14.8675C18.6116 14.8865 18.6596 14.925 18.7006 14.983L19.5301 16H19.2526C19.2326 16 19.2151 15.9985 19.2001 15.9955C19.1861 15.9925 19.1736 15.9885 19.1626 15.9835C19.1526 15.9775 19.1431 15.9705 19.1341 15.9625C19.1261 15.9545 19.1186 15.945 19.1116 15.934L18.4021 15.094C18.3921 15.081 18.3821 15.07 18.3721 15.061C18.3621 15.052 18.3506 15.045 18.3376 15.04C18.3246 15.034 18.3096 15.03 18.2926 15.028C18.2756 15.025 18.2556 15.0235 18.2326 15.0235H18.1021V16H17.7826V13.846H18.1021V14.7775Z" fill="white"/>
<path d="M24 12C24 8.8174 22.7357 5.76516 20.4853 3.51472C18.2348 1.26428 15.1826 2.43112e-07 12 2.83252e-09C8.8174 -2.37447e-07 5.76516 1.26428 3.51472 3.51472C1.26428 5.76515 4.96838e-07 8.8174 1.62786e-08 12H3C3 9.61305 3.94821 7.32387 5.63604 5.63604C7.32387 3.94821 9.61305 3 12 3C14.387 3 16.6761 3.94821 18.364 5.63604C20.0518 7.32387 21 9.61305 21 12H24Z" fill="#FF0000"/>
<path d="M6.18818 1.5013C4.30787 2.54219 2.74162 4.06896 1.65307 5.92209C0.564522 7.77521 -0.0063672 9.88667 5.35685e-05 12.0359L3.00004 12.0269C2.99522 10.415 3.42339 8.83141 4.2398 7.44156C5.05621 6.05172 6.23091 4.90664 7.64114 4.12597L6.18818 1.5013Z" fill="#FECDD3"/>
<path d="M18 1.60769C16.1803 0.5571 14.1167 0.00272123 12.0155 9.99259e-06C9.9143 -0.00270124 7.84923 0.54635 6.02684 1.59225L7.52013 4.19418C8.88692 3.40976 10.4357 2.99797 12.0116 3.00001C13.5875 3.00204 15.1352 3.41783 16.5 4.20577L18 1.60769Z" fill="#FB7185"/>
<path d="M3.48678 6.35844L12.5307 10.8716L11.9173 11.9341L3.48678 6.35844Z" fill="white"/>
<path d="M12.3649 10.7144C12.6838 10.8985 12.793 11.3062 12.6089 11.6251C12.4248 11.944 12.0171 12.0532 11.6982 11.8691C11.3794 11.685 11.2701 11.2773 11.4542 10.9584C11.6383 10.6396 12.046 10.5303 12.3649 10.7144Z" fill="white"/>
</svg>
