<svg width="24" height="24" viewBox="0 0 24 24" fill="none" xmlns="http://www.w3.org/2000/svg">
<path fill-rule="evenodd" clip-rule="evenodd" d="M24 12V12V12C24 15.7275 24 17.5913 23.391 19.0615C22.5791 21.0217 21.0217 22.5791 19.0615 23.391C17.5913 24 15.7275 24 12 24H12H8H7.99998C4.22876 24 2.34314 24 1.17157 22.8284C0 21.6569 0 19.7712 0 16V12C0 8.27247 0 6.4087 0.608964 4.93853C1.42092 2.97831 2.97831 1.42092 4.93853 0.608964C6.4087 0 8.27247 0 12 0C15.7275 0 17.5913 0 19.0615 0.608964C21.0217 1.42092 22.5791 2.97831 23.391 4.93853C24 6.4087 24 8.27246 24 12ZM12 7.00019C12.5523 7.00019 13 7.44791 13 8.00019V10.9995H16C16.5523 10.9995 17 11.4473 17 11.9995C17 12.5518 16.5523 12.9995 16 12.9995H13V16.0002C13 16.5525 12.5523 17.0002 12 17.0002C11.4477 17.0002 11 16.5525 11 16.0002V12.9995H8C7.44772 12.9995 7 12.5518 7 11.9995C7 11.4473 7.44772 10.9995 8 10.9995H11V8.00019C11 7.44791 11.4477 7.00019 12 7.00019Z" fill="black"/>
</svg>
