<svg width="20" height="20" viewBox="0 0 20 20" fill="none" xmlns="http://www.w3.org/2000/svg">
<g clip-path="url(#clip0_365_4688)">
<path d="M2.5 16.26C2.5 16.94 2.83333 17.5667 3.5 18.14C4.16667 18.7133 5.08 19.1667 6.24 19.5C7.4 19.8333 8.65333 20 10 20C10.0533 20 10.1267 20 10.22 20C10.3133 20 10.38 19.9933 10.42 19.98C9.48667 19.3267 8.76 18.4733 8.24 17.42C6.54667 17.26 5.16667 16.8867 4.1 16.3C3.03333 15.7133 2.5 14.9933 2.5 14.14V16.26ZM2.5 12.5C2.5 13.3266 2.98667 14.0666 3.96 14.72C4.93333 15.3733 6.19333 15.82 7.74 16.06C7.58 15.4466 7.5 14.8866 7.5 14.38C7.5 14.34 7.52667 14.0733 7.58 13.58C6.06 13.3666 4.83333 12.9866 3.9 12.44C2.96667 11.8933 2.5 11.2133 2.5 10.4V12.5ZM2.5 8.75998C2.5 9.59998 3 10.3466 4 11C5 11.6533 6.28667 12.1 7.86 12.34C8.12667 11.46 8.55333 10.6733 9.14 9.97998C7.88667 9.92665 6.76 9.75998 5.76 9.47998C4.76 9.19998 3.96667 8.81332 3.38 8.31998C2.79333 7.82665 2.5 7.26665 2.5 6.63998V8.75998ZM2.5 4.99998C2.5 5.67998 2.83333 6.30665 3.5 6.87998C4.16667 7.45332 5.08 7.91332 6.24 8.25998C7.4 8.60665 8.65333 8.77332 10 8.75998C10.0533 8.75998 10.1333 8.75332 10.24 8.73998C10.3467 8.72665 10.42 8.72665 10.46 8.73998C11.6467 7.91332 12.9533 7.49998 14.38 7.49998C14.6067 7.49998 14.9467 7.53332 15.4 7.59998C16.0533 7.25332 16.5667 6.85998 16.94 6.41998C17.3133 5.97998 17.5 5.50665 17.5 4.99998V3.75998C17.5 3.07998 17.1667 2.45332 16.5 1.87998C15.8333 1.30665 14.92 0.853315 13.76 0.519982C12.6 0.186649 11.3467 0.0133152 10 -1.81362e-05C8.65333 -0.0133515 7.4 0.159982 6.24 0.519982C5.08 0.879982 4.16667 1.33332 3.5 1.87998C2.83333 2.42665 2.5 3.05332 2.5 3.75998V4.99998ZM8.76 14.38C8.76 15.3933 9.00667 16.3333 9.5 17.2C9.99333 18.0667 10.68 18.7533 11.56 19.26C12.44 19.7666 13.38 20.02 14.38 20.02C15.38 20.02 16.32 19.7666 17.2 19.26C18.08 18.7533 18.76 18.0667 19.24 17.2C19.72 16.3333 19.9733 15.3933 20 14.38C20 13.62 19.8533 12.8933 19.56 12.2C19.2667 11.5066 18.8667 10.9066 18.36 10.4C17.8533 9.89332 17.2533 9.49332 16.56 9.19998C15.8667 8.90665 15.14 8.75998 14.38 8.75998C13.62 8.75998 12.8933 8.90665 12.2 9.19998C11.5067 9.49332 10.9067 9.89332 10.4 10.4C9.89333 10.9066 9.49333 11.5066 9.2 12.2C8.90667 12.8933 8.76 13.62 8.76 14.38ZM11.26 14.38C11.26 13.5133 11.56 12.78 12.16 12.18C12.76 11.58 13.5 11.2733 14.38 11.26C15.26 11.2466 15.9933 11.5533 16.58 12.18C17.1667 12.8067 17.4733 13.54 17.5 14.38C17.5267 15.22 17.22 15.96 16.58 16.6C15.94 17.24 15.2067 17.54 14.38 17.5C13.5533 17.46 12.8133 17.16 12.16 16.6C11.5067 16.04 11.2067 15.3 11.26 14.38ZM12.5 15H13.76V16.26H15V15H16.26V13.76H15V12.5H13.76V13.76H12.5V15ZM16.94 8.01998C17.02 8.04665 17.2067 8.13998 17.5 8.29998V6.63998C17.5 7.14665 17.3133 7.60665 16.94 8.01998Z" fill="white"/>
</g>
<defs>
<clipPath id="clip0_365_4688">
<rect width="20" height="20" fill="white"/>
</clipPath>
</defs>
</svg>
