<svg width="20" height="20" viewBox="0 0 20 20" fill="none" xmlns="http://www.w3.org/2000/svg">
<g clip-path="url(#clip0_365_4686)">
<path d="M-3.6211e-07 10V8.76C-3.6211e-07 7.37333 0.486666 6.19333 1.46 5.22C2.43333 4.24667 3.61333 3.76 5 3.76C5.42667 3.76 5.88 3.83333 6.36 3.98C6.6 2.83333 7.18 1.88667 8.1 1.14C9.02 0.393333 10.0733 0.0133333 11.26 0C12.6333 0 13.8067 0.493333 14.78 1.48C15.7533 2.46667 16.2467 3.64 16.26 5C16.26 5.37333 16.1933 5.8 16.06 6.28L14.38 6.26C13.2733 6.26 12.22 6.47333 11.22 6.9C10.22 7.32667 9.35333 7.90667 8.62 8.64C7.88667 9.37333 7.31333 10.2333 6.9 11.22C6.48667 12.2067 6.27333 13.26 6.26 14.38C6.26 14.3933 6.26667 14.6 6.28 15H5C3.62667 15 2.44667 14.5133 1.46 13.54C0.473333 12.5667 -0.0133337 11.3867 -3.6211e-07 10ZM8.76 14.38C8.76 15.14 8.90667 15.8667 9.2 16.56C9.49333 17.2533 9.89333 17.8533 10.4 18.36C10.9067 18.8667 11.5067 19.2667 12.2 19.56C12.8933 19.8533 13.62 20 14.38 20C15.14 20 15.8667 19.8533 16.56 19.56C17.2533 19.2667 17.8533 18.8667 18.36 18.36C18.8667 17.8533 19.2667 17.2533 19.56 16.56C19.8533 15.8667 20 15.14 20 14.38C20 13.62 19.8533 12.8933 19.56 12.2C19.2667 11.5067 18.8667 10.9067 18.36 10.4C17.8533 9.89333 17.2533 9.49333 16.56 9.2C15.8667 8.90667 15.14 8.76 14.38 8.76C13.62 8.76 12.8933 8.90667 12.2 9.2C11.5067 9.49333 10.9067 9.89333 10.4 10.4C9.89333 10.9067 9.49333 11.5067 9.2 12.2C8.90667 12.8933 8.76 13.62 8.76 14.38ZM11.26 14.38C11.26 13.5133 11.56 12.78 12.16 12.18C12.76 11.58 13.5 11.2733 14.38 11.26C15.26 11.2467 15.9933 11.5533 16.58 12.18C17.1667 12.8067 17.4733 13.54 17.5 14.38C17.5267 15.22 17.22 15.96 16.58 16.6C15.94 17.24 15.2067 17.54 14.38 17.5C13.5533 17.46 12.8133 17.16 12.16 16.6C11.5067 16.04 11.2067 15.3 11.26 14.38ZM12.5 15H13.76V16.26H15V15H16.26V13.76H15V12.5H13.76V13.76H12.5V15Z" fill="white"/>
</g>
<defs>
<clipPath id="clip0_365_4686">
<rect width="20" height="20" fill="white"/>
</clipPath>
</defs>
</svg>
