<svg width="25" height="24" viewBox="0 0 25 24" fill="none" xmlns="http://www.w3.org/2000/svg">
<path d="M13.0499 12.78C12.9799 12.77 12.8899 12.77 12.8099 12.78C11.0499 12.72 9.6499 11.28 9.6499 9.50998C9.6499 7.69998 11.1099 6.22998 12.9299 6.22998C14.7399 6.22998 16.2099 7.69998 16.2099 9.50998C16.1999 11.28 14.8099 12.72 13.0499 12.78Z" fill="white" stroke="white" stroke-linecap="round" stroke-linejoin="round"/>
<path d="M19.669 19.3801C17.889 21.0101 15.529 22.0001 12.929 22.0001C10.329 22.0001 7.96897 21.0101 6.18897 19.3801C6.28897 18.4401 6.88897 17.5201 7.95897 16.8001C10.699 14.9801 15.179 14.9801 17.899 16.8001C18.969 17.5201 19.569 18.4401 19.669 19.3801Z" fill="white" stroke="white" stroke-linecap="round" stroke-linejoin="round"/>
<path d="M12.9292 22C18.452 22 22.9292 17.5228 22.9292 12C22.9292 6.47715 18.452 2 12.9292 2C7.40635 2 2.9292 6.47715 2.9292 12C2.9292 17.5228 7.40635 22 12.9292 22Z" stroke="white" stroke-linecap="round" stroke-linejoin="round"/>
</svg>
