<svg width="22" height="24" viewBox="0 0 22 24" fill="none" xmlns="http://www.w3.org/2000/svg">
<path d="M21.1887 19.8228L18.5305 14.2785C19.5178 12.8354 20.1254 11.0127 20.1254 9.11392C20.1254 4.10127 16.0241 0 11.0115 0C5.99882 0 1.89755 4.10127 1.89755 9.11392C1.89755 11.0886 2.50515 12.8354 3.56844 14.3544L0.986161 19.8228C0.910212 20.0506 0.910212 20.3544 0.986161 20.5063C1.06211 20.6582 1.36591 20.8861 1.59376 20.8861L5.16338 21.1139L7.59376 23.7722C7.74566 23.924 7.9735 24 8.1254 24C8.1254 24 8.20135 24 8.2773 24C8.50515 24 8.733 23.7722 8.8849 23.5443L11.0874 18.9873L13.29 23.5443C13.3659 23.7722 13.5938 23.924 13.8976 24C13.8976 24 13.9735 24 14.0495 24C14.2773 24 14.4292 23.924 14.5811 23.7722L17.0115 21.1139L20.5811 20.8861C20.8089 20.8861 21.0368 20.7342 21.1887 20.5063C21.3406 20.2785 21.2646 20.0506 21.1887 19.8228ZM11.0115 1.51899C15.1887 1.51899 18.6064 4.93671 18.6064 9.11392C18.6064 13.2911 15.1887 16.7089 11.0115 16.7089C6.83426 16.7089 3.41654 13.2911 3.41654 9.11392C3.41654 4.93671 6.83426 1.51899 11.0115 1.51899Z" fill="white"/>
</svg>
