<svg width="33" height="34" viewBox="0 0 33 34" fill="none" xmlns="http://www.w3.org/2000/svg">
<g clip-path="url(#clip0_146_231)">
<g clip-path="url(#clip1_146_231)">
<mask id="mask0_146_231" style="mask-type:luminance" maskUnits="userSpaceOnUse" x="0" y="0" width="33" height="33">
<path d="M32.577 0.75293H0.883789V32.4461H32.577V0.75293Z" fill="white"/>
</mask>
<g mask="url(#mask0_146_231)">
<path fill-rule="evenodd" clip-rule="evenodd" d="M32.577 16.5995C32.577 25.3513 25.4822 32.4461 16.7304 32.4461C7.97855 32.4461 0.883789 25.3513 0.883789 16.5995C0.883789 7.84769 7.97855 0.75293 16.7304 0.75293C25.4822 0.75293 32.577 7.84769 32.577 16.5995ZM17.2982 12.4515C15.7569 13.0926 12.6765 14.4195 8.05687 16.4322C7.30672 16.7305 6.91376 17.0223 6.87798 17.3077C6.81753 17.7899 7.42145 17.9798 8.24383 18.2384C8.35569 18.2736 8.4716 18.3101 8.59043 18.3487C9.39953 18.6117 10.4879 18.9194 11.0537 18.9316C11.567 18.9427 12.1398 18.7311 12.7722 18.2968C17.0885 15.3832 19.3165 13.9106 19.4564 13.8788C19.5551 13.8564 19.6918 13.8283 19.7845 13.9106C19.8772 13.993 19.868 14.149 19.8582 14.1908C19.7984 14.4458 17.4278 16.6498 16.201 17.7903C15.8185 18.1459 15.5473 18.3981 15.4918 18.4557C15.3676 18.5847 15.241 18.7068 15.1193 18.8241C14.3676 19.5487 13.8039 20.0921 15.1505 20.9795C15.7976 21.4059 16.3154 21.7585 16.832 22.1103C17.3962 22.4945 17.9589 22.8777 18.6869 23.355C18.8724 23.4766 19.0496 23.6028 19.2221 23.7259C19.8787 24.1939 20.4685 24.6144 21.1972 24.5474C21.6207 24.5084 22.0581 24.1102 22.2802 22.9227C22.8052 20.1163 23.8371 14.0356 24.0756 11.5299C24.0965 11.3103 24.0702 11.0294 24.0491 10.906C24.028 10.7827 23.9838 10.607 23.8235 10.4769C23.6337 10.3228 23.3406 10.2903 23.2095 10.2926C22.6135 10.3031 21.699 10.6211 17.2982 12.4515Z" fill="white"/>
</g>
</g>
</g>
<defs>
<clipPath id="clip0_146_231">
<rect width="33" height="33" fill="white" transform="translate(0 0.0898438)"/>
</clipPath>
<clipPath id="clip1_146_231">
<rect width="33" height="33" fill="white" transform="translate(0 0.0898438)"/>
</clipPath>
</defs>
</svg>
