<svg width="33" height="49" viewBox="0 0 33 49" fill="none" xmlns="http://www.w3.org/2000/svg">
<g clip-path="url(#clip0_146_248)">
<g clip-path="url(#clip1_146_248)">
<g clip-path="url(#clip2_146_248)">
<path fill-rule="evenodd" clip-rule="evenodd" d="M0.0371094 13.7529C0.0371094 10.9915 2.27569 8.75293 5.03711 8.75293H27.0371C29.7985 8.75293 32.0371 10.9915 32.0371 13.7529V35.7529C32.0371 38.5143 29.7985 40.7529 27.0371 40.7529H5.03711C2.27569 40.7529 0.0371094 38.5143 0.0371094 35.7529V13.7529ZM7.27963 24.584C11.944 22.5518 15.0542 21.2121 16.6105 20.5648C21.0538 18.7166 21.9771 18.3956 22.5789 18.385C22.7113 18.3827 23.0072 18.4155 23.1989 18.571C23.3608 18.7024 23.4053 18.8798 23.4266 19.0043C23.448 19.1288 23.4745 19.4125 23.4534 19.6342C23.2126 22.1642 22.1707 28.3037 21.6407 31.1374C21.4164 32.3364 20.9748 32.7384 20.5472 32.7777C19.8114 32.8454 19.2159 32.4209 18.553 31.9483C18.3787 31.8241 18.1999 31.6965 18.0126 31.5738C17.2775 31.0919 16.7093 30.705 16.1397 30.3171C15.6181 29.9619 15.0953 29.6058 14.4419 29.1753C13.0823 28.2793 13.6515 27.7307 14.4104 26.999C14.5333 26.8806 14.6611 26.7573 14.7865 26.6271C14.8425 26.5689 15.1164 26.3143 15.5026 25.9553C16.7413 24.8037 19.1348 22.5784 19.1952 22.3209C19.2052 22.2786 19.2143 22.1212 19.1208 22.038C19.0272 21.9549 18.8892 21.9833 18.7895 22.0059C18.6483 22.038 16.3987 23.5249 12.0406 26.4667C11.4021 26.9051 10.8237 27.1188 10.3055 27.1076C9.73421 27.0953 8.63529 26.7846 7.81836 26.519C7.69855 26.4801 7.58167 26.4433 7.46887 26.4079C6.63852 26.1468 6.02829 25.9549 6.08933 25.468C6.12545 25.1798 6.52222 24.8852 7.27963 24.584Z" fill="white"/>
</g>
</g>
</g>
<defs>
<clipPath id="clip0_146_248">
<rect width="33" height="33" fill="white" transform="translate(0 8.08984)"/>
</clipPath>
<clipPath id="clip1_146_248">
<rect width="33" height="33" fill="white" transform="translate(0 8.08984)"/>
</clipPath>
<clipPath id="clip2_146_248">
<rect width="33" height="33" fill="white" transform="translate(0 8.08984)"/>
</clipPath>
</defs>
</svg>
