<svg width="504" height="547" viewBox="0 0 504 547" fill="none" xmlns="http://www.w3.org/2000/svg">
<g clip-path="url(#clip0_23_1368)">
<g clip-path="url(#clip1_23_1368)">
<path d="M430.765 576.041C437.595 571.493 443.642 565.661 449.198 559.567C485.509 519.732 513.572 466.195 535.248 417.03C555.173 371.855 574.493 311.842 556.602 263.484C536.893 210.222 489.177 175.03 437.034 156.5C380.304 136.347 318.832 134.68 258.632 135.502C205.739 136.221 152.231 139.025 99.6758 131.408C45.9115 123.617 -3.40317 90.6007 -48.5856 62.2513C-59.9744 55.1111 -71.6265 47.8462 -84.7156 44.7747C-136.235 32.6736 -138.858 94.5037 -130.458 129.208C-106.048 230.057 0.26359 310.685 75.2927 374.923C122.664 415.48 172.256 453.558 223.842 488.611C272.835 521.902 352.672 607.69 419.729 581.82C423.626 580.316 427.298 578.348 430.752 576.041H430.765Z" stroke="url(#paint0_radial_23_1368)" stroke-width="0.942127" stroke-miterlimit="10"/>
<path d="M522.489 412.193C541.444 369.205 559.835 312.087 542.812 266.078C524.054 215.393 478.648 181.897 429.025 164.273C375.04 145.091 316.542 143.51 259.262 144.282C208.882 144.962 157.868 147.6 107.812 140.307C56.899 132.911 10.1922 101.726 -32.6087 74.8941C-43.6105 68.0113 -54.8342 60.9082 -67.475 57.9392C-116.503 46.4294 -118.995 105.27 -111.006 138.286C-87.7717 234.252 13.3916 310.983 84.7963 372.108C129.816 410.645 176.937 446.839 225.944 480.164C272.296 511.672 347.058 590.774 411.053 568.352C414.923 567.001 418.654 565.459 422.198 563.289C429.037 559.089 435.077 553.316 440.582 547.365C475.297 509.776 501.917 458.884 522.512 412.191L522.489 412.193Z" stroke="url(#paint1_radial_23_1368)" stroke-width="0.942127" stroke-miterlimit="10"/>
<path d="M509.729 407.344C527.726 366.542 545.178 312.331 529.022 268.66C511.227 220.553 468.13 188.764 421.014 172.021C369.775 153.813 314.252 152.318 259.881 153.051C212.002 153.705 163.505 156.175 115.923 149.184C67.862 142.172 23.7648 112.829 -16.6562 87.515C-27.2815 80.9019 -38.066 73.9483 -50.2458 71.0927C-96.7841 60.1627 -99.1443 116.015 -91.5642 147.364C-69.517 238.46 26.5083 311.28 94.2773 369.306C136.935 405.836 181.583 440.121 228.023 471.729C271.723 501.444 341.534 573.993 402.341 554.886C406.185 553.676 409.989 552.585 413.609 550.538C420.457 546.675 426.477 540.974 431.931 535.153C465.051 499.799 490.228 451.574 509.73 407.355L509.729 407.344Z" stroke="url(#paint2_radial_23_1368)" stroke-width="0.942127" stroke-miterlimit="10"/>
<path d="M496.981 402.494C514.009 363.879 530.532 312.575 515.243 271.23C498.398 225.7 457.611 195.609 413.028 179.769C364.534 162.533 311.984 161.124 260.521 161.819C215.144 162.435 169.166 164.749 124.07 158.07C78.8724 151.454 37.4254 123.869 -0.668565 100.146C-10.8953 93.7775 -21.2503 87.0091 -32.9939 84.245C-77.0415 73.9062 -79.2821 126.758 -72.1009 156.43C-51.2295 242.644 39.6479 311.566 103.792 366.479C144.099 400.989 186.275 433.388 230.135 463.27C271.184 491.203 336.17 557.365 393.675 541.406C397.504 540.348 401.356 539.686 405.054 537.785C411.898 534.261 417.911 528.63 423.314 522.939C454.814 489.797 478.572 444.263 496.993 402.505L496.981 402.494Z" stroke="url(#paint3_radial_23_1368)" stroke-width="0.942127" stroke-miterlimit="10"/>
<path d="M484.219 397.645C500.289 361.216 515.872 312.807 501.44 273.813C485.545 230.861 447.069 202.478 405.005 187.53C359.245 171.279 309.68 169.933 261.127 170.59C218.251 171.167 174.789 173.314 132.181 166.958C89.835 160.727 51.0071 134.96 15.2835 112.778C5.44397 106.668 -4.48227 100.061 -15.7774 97.4112C-57.323 87.6514 -59.4428 137.527 -52.6608 165.51C-32.9769 246.842 52.7632 311.864 113.272 363.678C151.215 396.168 190.933 426.682 232.202 454.824C270.609 480.975 330.886 540.932 384.951 527.94C388.776 527.023 392.665 526.8 396.453 525.035C403.292 521.837 409.297 516.276 414.661 510.728C444.517 479.788 466.883 436.954 484.22 397.657L484.219 397.645Z" stroke="url(#paint4_radial_23_1368)" stroke-width="0.942127" stroke-miterlimit="10"/>
<path d="M471.473 392.796C486.573 358.554 501.228 313.051 487.661 276.394C472.719 236.021 436.551 209.334 397.008 195.29C353.993 180.012 307.403 178.752 261.758 179.37C221.396 179.92 180.428 181.902 140.317 175.845C100.836 170.009 64.6259 146.049 31.2614 125.421C21.81 119.58 12.3124 113.135 1.46573 110.587C-37.5892 101.419 -39.578 148.294 -33.2064 174.6C-14.6983 251.049 65.894 312.173 122.778 360.875C158.37 391.345 195.614 419.962 234.306 446.388C270.061 470.746 325.756 524.722 376.277 514.473C380.109 513.694 384.011 513.914 387.901 512.282C394.722 509.412 400.732 503.931 406.046 498.515C434.246 469.754 455.229 429.643 471.473 392.807V392.796Z" stroke="url(#paint5_radial_23_1368)" stroke-width="0.942127" stroke-miterlimit="10"/>
<path d="M458.714 387.958C472.855 355.89 486.57 313.307 473.871 278.977C459.891 241.18 426.021 216.19 389.009 203.05C348.741 188.745 305.124 187.571 262.4 188.15C224.539 188.662 186.089 190.487 148.465 184.743C111.835 179.291 78.2443 157.15 47.2502 138.064C38.186 132.479 29.1171 126.196 18.7179 123.751C-17.847 115.162 -19.703 159.048 -13.7421 183.677C3.57887 255.256 79.0338 312.469 132.282 358.072C165.524 386.534 200.296 413.253 236.408 437.952C269.511 460.528 320.744 508.75 367.589 501.017C371.442 500.377 375.357 501.039 379.323 499.542C386.128 496.987 392.144 491.6 397.419 486.313C423.949 459.721 443.562 422.344 458.726 387.969L458.714 387.958Z" stroke="url(#paint6_radial_23_1368)" stroke-width="0.942127" stroke-miterlimit="10"/>
<path d="M445.952 383.109C459.125 353.228 471.911 313.539 460.079 281.559C447.05 246.339 415.49 223.057 380.998 210.81C343.475 197.477 302.832 196.377 263.017 196.919C227.658 197.404 191.732 198.969 156.587 193.63C122.827 188.492 91.8257 168.252 63.2133 150.695C54.5372 145.368 45.896 139.247 35.9472 136.916C1.87236 128.918 0.135082 169.804 5.69834 192.756C21.8436 259.452 92.1498 312.768 141.773 355.257C172.652 381.699 204.964 406.522 238.498 429.505C268.961 450.299 317.793 501.546 358.899 487.537C362.805 487.838 366.687 488.128 370.755 486.777C377.544 484.538 383.565 479.243 388.789 474.088C413.614 449.643 431.895 415.021 445.963 383.109H445.952Z" stroke="url(#paint7_radial_23_1368)" stroke-width="0.942127" stroke-miterlimit="10"/>
<path d="M433.206 378.26C445.419 350.565 457.266 313.783 446.302 284.14C434.223 251.499 404.973 229.913 373.012 218.558C338.234 206.198 300.554 205.185 263.659 205.688C230.813 206.133 197.392 207.532 164.734 202.505C133.838 197.75 105.444 179.342 79.2024 163.315C70.9136 158.256 62.7011 152.297 53.1988 150.057C21.615 142.64 20.0105 180.547 25.1621 201.811C40.1202 263.625 105.29 313.053 151.277 352.42C179.805 376.842 209.633 399.781 240.599 421.023C268.41 440.036 312.814 486.341 350.21 474.035C354.119 474.592 358.019 475.196 362.19 474.002C368.949 472.067 374.975 466.866 380.161 461.853C403.268 439.544 420.228 407.687 433.215 378.236L433.206 378.26Z" stroke="url(#paint8_radial_23_1368)" stroke-width="0.942127" stroke-miterlimit="10"/>
<path d="M420.444 373.411C431.69 347.903 442.607 314.015 432.499 286.724C421.37 256.648 394.431 236.783 364.99 226.318C332.958 214.943 298.251 214.005 264.264 214.458C233.919 214.866 203.017 216.097 172.845 211.393C144.801 207.023 119.027 190.444 95.1544 175.959C87.2415 171.159 79.4812 165.36 70.417 163.234C41.3232 156.408 39.8497 191.315 44.5914 210.901C58.3738 267.845 118.395 313.363 160.758 349.63C186.922 372.032 214.29 393.074 242.666 412.601C267.825 429.819 307.802 471.208 341.498 460.581C345.411 461.394 349.329 462.312 353.589 461.264C360.319 459.621 366.349 454.525 371.508 449.652C392.873 429.446 408.538 400.389 420.443 373.399L420.444 373.411Z" stroke="url(#paint9_radial_23_1368)" stroke-width="0.942127" stroke-miterlimit="10"/>
<path d="M407.698 368.561C417.985 345.239 427.962 314.259 418.72 289.293C408.543 261.795 383.913 243.626 356.992 234.066C327.705 223.664 295.973 222.8 264.895 223.226C237.052 223.608 208.666 224.66 180.98 220.269C155.799 216.282 132.623 201.546 111.131 188.579C103.605 184.036 96.2738 178.399 87.6572 176.376C61.0656 170.128 59.7127 202.047 64.0446 219.968C76.6512 272.029 131.524 313.649 170.262 346.804C194.075 367.186 218.972 386.342 244.768 404.142C267.275 419.579 302.825 456.026 332.81 447.102C336.725 448.171 340.661 449.39 345.023 448.5C351.722 447.139 357.761 442.17 362.882 437.428C382.479 419.315 396.872 393.067 407.684 368.539L407.698 368.561Z" stroke="url(#paint10_radial_23_1368)" stroke-width="0.942127" stroke-miterlimit="10"/>
<path d="M394.938 363.724C404.256 342.588 413.304 314.515 404.931 291.888C395.716 266.966 373.384 250.506 348.995 241.838C322.454 232.408 293.695 231.63 265.537 232.017C240.196 232.36 214.327 233.246 189.129 229.179C166.799 225.575 146.231 212.683 127.121 201.232C119.982 196.959 113.08 191.483 104.911 189.563C80.8108 183.907 79.5766 212.826 83.5099 229.069C94.9295 276.248 144.664 313.969 179.768 344.024C201.219 362.399 223.654 379.646 246.873 395.729C266.738 409.384 297.86 440.891 324.136 433.669C328.054 434.994 332.006 436.503 336.471 435.782C343.139 434.702 349.184 429.837 354.279 425.26C372.085 409.206 385.232 385.802 394.962 363.734L394.938 363.724Z" stroke="url(#paint11_radial_23_1368)" stroke-width="0.942127" stroke-miterlimit="10"/>
<path d="M382.178 358.875C390.537 339.926 398.646 314.748 391.14 294.47C382.876 272.127 362.865 257.362 340.984 249.598C317.189 241.142 291.404 240.449 266.155 240.788C243.326 241.091 219.963 241.822 197.24 238.067C177.774 234.848 159.793 223.81 143.074 213.865C136.323 209.848 129.847 204.536 122.129 202.729C100.518 197.652 99.4164 223.594 102.939 238.149C113.183 280.446 157.77 314.268 189.247 341.212C208.348 357.565 228.279 372.964 248.951 387.284C266.143 399.181 292.859 425.721 315.423 420.191C319.345 421.773 323.314 423.584 327.87 423.032C334.508 422.233 340.548 417.485 345.616 413.049C361.605 399.033 373.53 378.494 382.178 358.887V358.875Z" stroke="url(#paint12_radial_23_1368)" stroke-width="0.942127" stroke-miterlimit="10"/>
<path d="M369.43 354.024C376.821 337.262 384.001 314.991 377.35 297.051C370.036 277.286 352.336 264.229 332.974 257.347C311.924 249.863 289.113 249.257 266.774 249.557C246.447 249.834 225.601 250.385 205.364 246.942C188.75 244.119 173.366 234.924 159.039 226.496C152.664 222.749 146.629 217.598 139.359 215.882C120.238 211.397 119.268 234.338 122.38 247.215C131.437 284.642 170.886 314.554 198.729 338.397C215.466 352.732 232.937 366.245 251.018 378.826C265.557 388.941 287.846 410.553 306.711 406.714C310.636 408.55 314.621 410.64 319.281 410.268C325.887 409.728 331.923 405.108 336.964 400.825C351.113 388.824 361.841 371.172 369.395 354.027L369.43 354.024Z" stroke="url(#paint13_radial_23_1368)" stroke-width="0.942127" stroke-miterlimit="10"/>
<path d="M356.67 349.177C363.102 334.6 369.33 315.236 363.559 299.623C357.196 282.435 341.805 271.075 324.975 265.096C306.671 258.596 286.833 258.053 267.402 258.314C249.577 258.553 231.237 258.95 213.499 255.818C199.747 253.391 186.949 246.05 175.014 239.116C169.027 235.639 163.42 230.637 156.598 229.036C139.968 225.131 139.13 245.082 141.843 256.282C149.724 288.826 184.025 314.84 208.243 335.571C222.63 347.886 237.628 359.514 253.13 370.367C265.03 378.7 282.879 395.371 298.033 393.223C301.96 395.316 305.963 397.696 310.725 397.494C317.311 397.221 323.318 392.697 328.358 388.589C340.639 378.558 350.195 363.837 356.668 349.153L356.67 349.177Z" stroke="url(#paint14_radial_23_1368)" stroke-width="0.942127" stroke-miterlimit="10"/>
<path d="M343.922 344.339C349.385 331.949 354.684 315.48 349.78 302.215C344.369 287.606 331.287 277.954 316.977 272.867C301.419 267.34 284.555 266.884 268.033 267.106C252.722 267.318 236.887 267.559 221.635 264.728C210.737 262.708 200.525 257.212 190.992 251.771C185.382 248.563 180.226 243.71 173.84 242.212C159.713 238.897 158.983 255.861 161.297 265.372C167.99 293.034 197.155 315.16 217.737 332.781C229.76 343.075 242.299 352.806 255.222 361.942C264.469 368.483 277.903 380.223 289.347 379.779C293.265 382.128 297.295 384.786 302.149 384.765C308.704 384.751 314.681 380.321 319.719 376.399C330.11 368.317 338.518 356.538 343.91 344.327L343.922 344.339Z" stroke="url(#paint15_radial_23_1368)" stroke-width="0.942127" stroke-miterlimit="10"/>
<path d="M331.162 339.489C335.667 329.285 340.026 315.724 335.99 304.797C331.541 292.766 320.758 284.81 308.967 280.627C296.143 276.074 282.265 275.703 268.663 275.886C255.853 276.06 242.527 276.17 229.77 273.615C221.726 272.013 214.089 268.374 206.968 264.402C201.724 261.488 197.018 256.772 191.081 255.376C179.444 252.641 178.846 266.616 180.75 274.451C186.268 297.242 210.283 315.458 227.241 329.965C236.914 338.252 246.978 346.063 257.324 353.495C263.93 358.241 272.924 365.053 280.67 366.311C284.592 368.917 288.649 371.841 293.596 372.024C300.129 372.256 306.04 367.899 311.115 364.197C319.588 358.017 326.876 349.238 331.174 339.501L331.162 339.489Z" stroke="url(#paint16_radial_23_1368)" stroke-width="0.942127" stroke-miterlimit="10"/>
<path d="M318.402 334.64C321.937 326.624 325.368 315.957 322.199 307.38C318.701 297.925 310.227 291.679 300.968 288.388C290.889 284.806 279.985 284.51 269.293 284.655C258.983 284.791 248.155 284.816 237.905 282.502C232.703 281.332 227.652 279.548 222.944 277.045C218.055 274.437 213.81 269.834 208.322 268.552C199.175 266.409 198.709 277.383 200.202 283.54C204.533 301.449 223.412 315.767 236.733 327.175C244.055 333.442 251.67 339.342 259.415 345.06C263.39 348.001 267.935 349.907 271.969 352.844C276.004 355.781 279.966 358.897 285.018 359.272C291.542 359.749 297.325 355.389 302.475 351.985C309.016 347.663 315.197 341.928 318.414 334.652L318.402 334.64Z" stroke="url(#paint17_radial_23_1368)" stroke-width="0.942127" stroke-miterlimit="10"/>
</g>
</g>
<g opacity="0.667411" filter="url(#filter0_f_23_1368)">
<path fill-rule="evenodd" clip-rule="evenodd" d="M205.558 419.2C184.47 416.545 175.27 391.22 190.164 376.822L264.842 304.627C277.901 292.001 300.295 297.409 306.578 314.706L337.639 400.212C343.923 417.509 329.789 434.838 311.297 432.51L205.558 419.2Z" fill="url(#paint18_linear_23_1368)"/>
</g>
<g opacity="0.739328" filter="url(#filter1_f_23_1368)">
<path fill-rule="evenodd" clip-rule="evenodd" d="M127.5 342.995C121.517 337.837 118.682 330.033 120.047 322.476L134.375 243.155C135.758 235.497 141.243 229.259 148.749 226.809L225.518 201.754C233.023 199.304 241.397 201.019 247.461 206.246L310.273 260.391C316.257 265.549 319.092 273.353 317.727 280.91L303.399 360.231C302.015 367.889 296.53 374.127 289.025 376.577L212.256 401.632C204.751 404.082 196.376 402.367 190.312 397.14L127.5 342.995Z" fill="url(#paint19_linear_23_1368)"/>
</g>
<g filter="url(#filter2_f_23_1368)">
<path fill-rule="evenodd" clip-rule="evenodd" d="M150.433 203.116C144.478 197.966 141.653 190.19 143.001 182.656L149.175 148.147C150.548 140.474 156.038 134.221 163.555 131.767L196.501 121.014C204.018 118.561 212.406 120.285 218.472 125.53L245.751 149.12C251.707 154.271 254.531 162.047 253.183 169.581L247.01 204.089C245.637 211.762 240.147 218.016 232.63 220.469L199.683 231.222C192.166 233.675 183.778 231.951 177.713 226.706L150.433 203.116Z" fill="url(#paint20_linear_23_1368)"/>
</g>
<g opacity="0.625093" filter="url(#filter3_f_23_1368)">
<ellipse cx="85.194" cy="103.052" rx="85.194" ry="103.052" transform="matrix(-0.341435 -0.939905 0.950649 -0.31027 228.961 320.062)" fill="url(#paint21_linear_23_1368)"/>
</g>
<defs>
<filter id="filter0_f_23_1368" x="68.6798" y="183.539" width="384.642" height="363.351" filterUnits="userSpaceOnUse" color-interpolation-filters="sRGB">
<feFlood flood-opacity="0" result="BackgroundImageFix"/>
<feBlend mode="normal" in="SourceGraphic" in2="BackgroundImageFix" result="shape"/>
<feGaussianBlur stdDeviation="57.0839" result="effect1_foregroundBlur_23_1368"/>
</filter>
<filter id="filter1_f_23_1368" x="0.104584" y="81.0514" width="437.564" height="441.283" filterUnits="userSpaceOnUse" color-interpolation-filters="sRGB">
<feFlood flood-opacity="0" result="BackgroundImageFix"/>
<feBlend mode="normal" in="SourceGraphic" in2="BackgroundImageFix" result="shape"/>
<feGaussianBlur stdDeviation="59.8022" result="effect1_foregroundBlur_23_1368"/>
</filter>
<filter id="filter2_f_23_1368" x="23.0655" y="0.312103" width="350.053" height="351.612" filterUnits="userSpaceOnUse" color-interpolation-filters="sRGB">
<feFlood flood-opacity="0" result="BackgroundImageFix"/>
<feBlend mode="normal" in="SourceGraphic" in2="BackgroundImageFix" result="shape"/>
<feGaussianBlur stdDeviation="59.8022" result="effect1_foregroundBlur_23_1368"/>
</filter>
<filter id="filter3_f_23_1368" x="92.3244" y="18.4738" width="411.031" height="379.079" filterUnits="userSpaceOnUse" color-interpolation-filters="sRGB">
<feFlood flood-opacity="0" result="BackgroundImageFix"/>
<feBlend mode="normal" in="SourceGraphic" in2="BackgroundImageFix" result="shape"/>
<feGaussianBlur stdDeviation="51.6474" result="effect1_foregroundBlur_23_1368"/>
</filter>
<radialGradient id="paint0_radial_23_1368" cx="0" cy="0" r="1" gradientUnits="userSpaceOnUse" gradientTransform="translate(221.021 310.785) rotate(90) scale(318.737 382.706)">
<stop stop-color="white"/>
<stop offset="1" stop-color="white" stop-opacity="0"/>
</radialGradient>
<radialGradient id="paint1_radial_23_1368" cx="0" cy="0" r="1" gradientUnits="userSpaceOnUse" gradientTransform="translate(221.02 310.785) rotate(90) scale(318.737 382.706)">
<stop stop-color="white"/>
<stop offset="1" stop-color="white" stop-opacity="0"/>
</radialGradient>
<radialGradient id="paint2_radial_23_1368" cx="0" cy="0" r="1" gradientUnits="userSpaceOnUse" gradientTransform="translate(221.021 310.785) rotate(90) scale(318.737 382.706)">
<stop stop-color="white"/>
<stop offset="1" stop-color="white" stop-opacity="0"/>
</radialGradient>
<radialGradient id="paint3_radial_23_1368" cx="0" cy="0" r="1" gradientUnits="userSpaceOnUse" gradientTransform="translate(221.02 310.785) rotate(90) scale(318.737 382.706)">
<stop stop-color="white"/>
<stop offset="1" stop-color="white" stop-opacity="0"/>
</radialGradient>
<radialGradient id="paint4_radial_23_1368" cx="0" cy="0" r="1" gradientUnits="userSpaceOnUse" gradientTransform="translate(221.019 310.785) rotate(90) scale(318.737 382.706)">
<stop stop-color="white"/>
<stop offset="1" stop-color="white" stop-opacity="0"/>
</radialGradient>
<radialGradient id="paint5_radial_23_1368" cx="0" cy="0" r="1" gradientUnits="userSpaceOnUse" gradientTransform="translate(221.021 310.785) rotate(90) scale(318.737 382.706)">
<stop stop-color="white"/>
<stop offset="1" stop-color="white" stop-opacity="0"/>
</radialGradient>
<radialGradient id="paint6_radial_23_1368" cx="0" cy="0" r="1" gradientUnits="userSpaceOnUse" gradientTransform="translate(221.021 310.785) rotate(90) scale(318.737 382.706)">
<stop stop-color="white"/>
<stop offset="1" stop-color="white" stop-opacity="0"/>
</radialGradient>
<radialGradient id="paint7_radial_23_1368" cx="0" cy="0" r="1" gradientUnits="userSpaceOnUse" gradientTransform="translate(221.019 310.784) rotate(90) scale(318.737 382.706)">
<stop stop-color="white"/>
<stop offset="1" stop-color="white" stop-opacity="0"/>
</radialGradient>
<radialGradient id="paint8_radial_23_1368" cx="0" cy="0" r="1" gradientUnits="userSpaceOnUse" gradientTransform="translate(221.021 310.785) rotate(90) scale(318.737 382.706)">
<stop stop-color="white"/>
<stop offset="1" stop-color="white" stop-opacity="0"/>
</radialGradient>
<radialGradient id="paint9_radial_23_1368" cx="0" cy="0" r="1" gradientUnits="userSpaceOnUse" gradientTransform="translate(221.02 310.785) rotate(90) scale(318.737 382.706)">
<stop stop-color="white"/>
<stop offset="1" stop-color="white" stop-opacity="0"/>
</radialGradient>
<radialGradient id="paint10_radial_23_1368" cx="0" cy="0" r="1" gradientUnits="userSpaceOnUse" gradientTransform="translate(221.021 310.785) rotate(90) scale(318.737 382.706)">
<stop stop-color="white"/>
<stop offset="1" stop-color="white" stop-opacity="0"/>
</radialGradient>
<radialGradient id="paint11_radial_23_1368" cx="0" cy="0" r="1" gradientUnits="userSpaceOnUse" gradientTransform="translate(221.021 310.785) rotate(90) scale(318.737 382.706)">
<stop stop-color="white"/>
<stop offset="1" stop-color="white" stop-opacity="0"/>
</radialGradient>
<radialGradient id="paint12_radial_23_1368" cx="0" cy="0" r="1" gradientUnits="userSpaceOnUse" gradientTransform="translate(221.021 310.785) rotate(90) scale(318.737 382.706)">
<stop stop-color="white"/>
<stop offset="1" stop-color="white" stop-opacity="0"/>
</radialGradient>
<radialGradient id="paint13_radial_23_1368" cx="0" cy="0" r="1" gradientUnits="userSpaceOnUse" gradientTransform="translate(221.021 310.784) rotate(90) scale(318.737 382.706)">
<stop stop-color="white"/>
<stop offset="1" stop-color="white" stop-opacity="0"/>
</radialGradient>
<radialGradient id="paint14_radial_23_1368" cx="0" cy="0" r="1" gradientUnits="userSpaceOnUse" gradientTransform="translate(221.021 310.785) rotate(90) scale(318.737 382.706)">
<stop stop-color="white"/>
<stop offset="1" stop-color="white" stop-opacity="0"/>
</radialGradient>
<radialGradient id="paint15_radial_23_1368" cx="0" cy="0" r="1" gradientUnits="userSpaceOnUse" gradientTransform="translate(221.021 310.785) rotate(90) scale(318.737 382.706)">
<stop stop-color="white"/>
<stop offset="1" stop-color="white" stop-opacity="0"/>
</radialGradient>
<radialGradient id="paint16_radial_23_1368" cx="0" cy="0" r="1" gradientUnits="userSpaceOnUse" gradientTransform="translate(221.021 310.785) rotate(90) scale(318.737 382.706)">
<stop stop-color="white"/>
<stop offset="1" stop-color="white" stop-opacity="0"/>
</radialGradient>
<radialGradient id="paint17_radial_23_1368" cx="0" cy="0" r="1" gradientUnits="userSpaceOnUse" gradientTransform="translate(221.02 310.785) rotate(90) scale(318.737 382.706)">
<stop stop-color="white"/>
<stop offset="1" stop-color="white" stop-opacity="0"/>
</radialGradient>
<linearGradient id="paint18_linear_23_1368" x1="138.449" y1="653.405" x2="469.425" y2="533.108" gradientUnits="userSpaceOnUse">
<stop stop-color="#01D396"/>
<stop offset="0.668612" stop-color="#01F5FF"/>
<stop offset="1" stop-color="#FE8C43"/>
</linearGradient>
<linearGradient id="paint19_linear_23_1368" x1="115.32" y1="562.769" x2="362.374" y2="401.069" gradientUnits="userSpaceOnUse">
<stop stop-color="#FE8C43"/>
<stop offset="1" stop-color="#A66CFF"/>
</linearGradient>
<linearGradient id="paint20_linear_23_1368" x1="196.257" y1="309.758" x2="308.899" y2="181.656" gradientUnits="userSpaceOnUse">
<stop stop-color="#B2EBF2"/>
<stop offset="0.653477" stop-color="#D1C4E9"/>
<stop offset="1" stop-color="#A66CFF"/>
</linearGradient>
<linearGradient id="paint21_linear_23_1368" x1="-25.7021" y1="41.072" x2="67.7289" y2="234.872" gradientUnits="userSpaceOnUse">
<stop stop-color="#01D396"/>
<stop offset="1" stop-color="#00BCD4"/>
</linearGradient>
<clipPath id="clip0_23_1368">
<rect width="374.683" height="355.15" fill="white" transform="translate(88.5527 137.139)"/>
</clipPath>
<clipPath id="clip1_23_1368">
<rect width="700" height="545.491" fill="white" transform="translate(-135.447 42.1392)"/>
</clipPath>
</defs>
</svg>
