<svg width="700" height="700" viewBox="0 0 700 700" fill="none" xmlns="http://www.w3.org/2000/svg">
<g opacity="0.667411" filter="url(#filter0_f_23_1201)">
<path fill-rule="evenodd" clip-rule="evenodd" d="M267.966 498.037C247.544 495.325 238.984 470.462 253.406 455.752L312.513 395.468C325.524 382.198 347.952 387.259 354.002 404.831L378.587 476.23C384.637 493.802 370.08 511.598 351.657 509.152L267.966 498.037Z" fill="url(#paint0_linear_23_1201)"/>
</g>
<g opacity="0.739328" filter="url(#filter1_f_23_1201)">
<path fill-rule="evenodd" clip-rule="evenodd" d="M196.412 427.596C190.857 422.544 188.262 415.008 189.529 407.607L201.724 336.383C203.08 328.462 208.647 321.911 216.246 319.294L280.046 297.326C287.645 294.71 296.065 296.445 302.011 301.852L355.47 350.469C361.025 355.521 363.62 363.057 362.353 370.458L350.158 441.682C348.802 449.603 343.235 456.154 335.636 458.77L271.835 480.739C264.237 483.355 255.816 481.62 249.871 476.213L196.412 427.596Z" fill="url(#paint1_linear_23_1201)"/>
</g>
<g filter="url(#filter2_f_23_1201)">
<path fill-rule="evenodd" clip-rule="evenodd" d="M216.483 298.419C210.954 293.375 208.369 285.867 209.62 278.488L214.681 248.647C216.026 240.712 221.598 234.144 229.209 231.524L254.645 222.766C262.255 220.145 270.689 221.89 276.635 227.315L298.995 247.714C304.523 252.758 307.109 260.267 305.858 267.645L300.797 297.486C299.451 305.422 293.88 311.989 286.269 314.609L260.833 323.368C253.223 325.988 244.789 324.244 238.843 318.819L216.483 298.419Z" fill="url(#paint2_linear_23_1201)"/>
</g>
<g opacity="0.625093" filter="url(#filter3_f_23_1201)">
<ellipse cx="345.049" cy="302.521" rx="78.2073" ry="90.6942" transform="rotate(-109 345.049 302.521)" fill="url(#paint3_linear_23_1201)"/>
</g>
<g clip-path="url(#clip0_23_1201)">
<g style="mix-blend-mode:overlay">
<path d="M476.31 24.0314C453.176 40.1205 438.01 67.1305 436.303 95.2479C435.534 107.892 437.334 120.673 435.503 133.21C431.873 157.974 414.723 178.401 397.434 196.505C380.145 214.609 361.441 232.79 353.227 256.432C348.152 271.059 347.474 286.81 347.613 302.299C347.752 317.649 348.628 332.985 350.259 348.259M423.752 8.31167C403.417 27.8154 392.666 56.8712 395.388 84.9118C396.619 97.5246 400.387 109.86 400.541 122.52C400.833 147.545 387.082 170.403 372.839 190.998C358.595 211.594 342.967 232.467 338.554 257.108C335.831 272.351 337.631 288.01 340.184 303.283C342.722 318.419 345.982 333.432 349.982 348.259M369.378 0.98999C352.351 23.4317 346.275 53.8102 353.351 81.0817C356.535 93.3408 362.195 104.939 364.318 117.429C368.517 142.1 358.519 166.834 347.674 189.383C336.831 211.947 324.649 235.02 324.157 260.045C323.849 275.52 328.078 290.717 332.985 305.406C337.862 319.957 343.43 334.277 349.705 348.29M314.528 2.28225C301.222 27.1235 299.962 58.0711 311.22 83.8967C316.281 95.5098 323.679 106.077 327.74 118.074C335.754 141.793 329.74 167.772 322.557 191.752C315.373 215.732 306.96 240.42 310.374 265.23C312.481 280.565 319.034 294.916 326.186 308.637C333.277 322.249 341.03 335.524 349.413 348.382M260.554 12.1263C251.294 38.7363 254.893 69.4994 270.06 93.264C276.873 103.939 285.841 113.23 291.717 124.442C303.345 146.623 301.468 173.217 298.131 198.028C294.793 222.838 290.333 248.54 297.592 272.505C302.084 287.318 310.79 300.468 320.003 312.913C329.14 325.248 338.862 337.139 349.152 348.537M208.779 30.2918C203.795 58.0247 212.164 87.8496 230.852 108.938C239.25 118.413 249.556 126.18 257.123 136.347C272.074 156.436 274.381 183 274.965 208.026C275.551 233.051 275.165 259.139 286.086 281.657C292.84 295.593 303.499 307.206 314.543 318.065C325.494 328.817 336.968 339.045 348.905 348.69M160.497 56.3481C159.912 84.5117 172.848 112.66 194.597 130.579C204.38 138.624 215.778 144.684 224.838 153.544C242.742 171.048 249.186 196.92 253.663 221.545C258.155 246.172 261.862 271.997 276.165 292.532C285.01 305.237 297.362 315.05 309.96 324.034C322.449 332.954 335.385 341.245 348.69 348.905M116.874 89.6183C120.704 117.536 137.885 143.316 162.173 157.589C173.094 164.004 185.291 168.203 195.628 175.539C216.055 190.014 226.453 214.578 234.743 238.189C243.034 261.815 250.74 286.733 268.075 304.791C278.796 315.957 292.532 323.71 306.39 330.617C320.126 337.461 334.2 343.644 348.536 349.121M78.9898 129.318C87.1421 156.282 108.138 179.062 134.364 189.367C146.146 193.998 158.866 196.243 170.218 201.857C192.66 212.963 206.765 235.589 218.655 257.616C230.545 279.641 242.034 303.068 261.999 318.172C274.336 327.525 289.117 333.032 303.883 337.692C318.527 342.306 333.385 346.213 348.413 349.382M47.7962 174.447C60.0706 199.812 84.3735 219.024 111.891 225.099C124.258 227.838 137.163 228.052 149.253 231.821C173.156 239.281 190.629 259.416 205.811 279.319C220.992 299.223 236.02 320.541 258.092 332.354C271.736 339.661 287.194 342.783 302.515 345.075C317.696 347.351 332.985 348.874 348.321 349.659M24.0316 223.899C40.1207 247.034 67.1307 262.199 95.2482 263.907C107.892 264.676 120.673 262.876 133.21 264.707C157.974 268.337 178.401 285.487 196.505 302.776C214.609 320.064 232.79 338.768 256.432 346.982C271.06 352.058 286.81 352.736 302.299 352.597C317.65 352.458 332.985 351.581 348.26 349.951M8.31192 276.458C27.8157 296.793 56.8714 307.544 84.912 304.822C97.5249 303.591 109.861 299.823 122.52 299.669C147.546 299.376 170.403 313.128 190.998 327.371C211.594 341.615 232.467 357.241 257.108 361.656C272.352 364.379 288.01 362.579 303.283 360.026C318.419 357.488 333.432 354.228 348.26 350.228M0.990234 330.832C23.4319 347.859 53.8104 353.935 81.0819 346.859C93.341 343.675 104.939 338.015 117.429 335.892C142.1 331.693 166.834 341.691 189.383 352.536C211.933 363.379 235.02 375.561 260.046 376.053C275.52 376.361 290.717 372.132 305.406 367.225C319.958 362.348 334.277 356.78 348.29 350.505M2.28212 385.682C27.1233 398.988 58.071 400.248 83.8966 388.99C95.5096 383.929 106.076 376.531 118.074 372.47C141.793 364.456 167.772 370.47 191.752 377.653C215.732 384.837 240.419 393.25 265.23 389.836C280.565 387.729 294.916 381.176 308.637 374.024C322.249 366.933 335.523 359.18 348.382 350.797M12.1262 439.656C38.7362 448.916 69.4993 445.317 93.2638 430.15C103.939 423.337 113.229 414.369 124.442 408.493C146.622 396.864 173.217 398.741 198.028 402.079C222.838 405.417 248.541 409.877 272.505 402.618C287.317 398.126 300.468 389.42 312.912 380.207C325.249 371.07 337.138 361.348 348.536 351.058M30.292 491.431C58.025 496.414 87.8498 488.046 108.938 469.357C118.413 460.959 126.18 450.654 136.348 443.086C156.436 428.136 183 425.828 208.026 425.243C233.052 424.659 259.139 425.043 281.658 414.123C295.593 407.37 307.206 396.711 318.065 385.667C328.817 374.715 339.046 363.24 348.69 351.305M56.3484 539.729C84.5119 540.313 112.661 527.377 130.579 505.628C138.624 495.844 144.684 484.447 153.545 475.387C171.049 457.483 196.92 451.039 221.546 446.562C246.172 442.071 271.997 438.364 292.532 424.059C305.237 415.215 315.051 402.863 324.034 390.266C332.955 377.776 341.246 364.84 348.905 351.536M89.6186 583.35C117.536 579.521 143.316 562.339 157.589 538.052C164.004 527.132 168.203 514.934 175.54 504.597C190.014 484.17 214.578 473.772 238.189 465.482C261.815 457.191 286.733 449.485 304.791 432.15C315.958 421.43 323.71 407.694 330.617 393.835C337.462 380.099 343.645 366.025 349.121 351.689M129.318 621.22C156.281 613.068 179.062 592.072 189.367 565.846C193.997 554.064 196.243 541.343 201.858 529.992C212.963 507.55 235.589 493.445 257.615 481.555C279.658 469.681 303.067 458.176 318.172 438.211C327.525 425.874 333.031 411.093 337.692 396.327C342.306 381.683 346.213 366.825 349.381 351.797M174.448 652.429C199.812 640.154 219.023 615.851 225.099 588.335C227.837 575.967 228.053 563.062 231.821 550.972C239.281 527.069 259.415 509.596 279.319 494.415C299.223 479.233 320.542 464.205 332.355 442.133C339.661 428.489 342.783 413.031 345.075 397.711C347.352 382.529 348.874 367.24 349.659 351.905M223.899 676.178C247.033 660.089 262.199 633.079 263.907 604.961C264.675 592.318 262.876 579.536 264.706 567C268.337 542.236 285.487 521.809 302.775 503.705C320.064 485.601 338.768 467.42 346.982 443.778C352.059 429.15 352.735 413.4 352.596 397.911C352.459 382.559 351.581 367.225 349.951 351.95M276.459 691.914C296.792 672.41 307.545 643.354 304.822 615.314C303.591 602.701 299.823 590.364 299.668 577.706C299.376 552.68 313.128 529.823 327.371 509.227C341.614 488.631 357.242 467.758 361.657 443.117C364.379 427.874 362.579 412.216 360.026 396.941C357.488 381.806 354.227 366.794 350.228 351.966M330.832 699.22C347.86 676.778 353.935 646.4 346.86 619.128C343.675 606.869 338.015 595.271 335.892 582.781C331.693 558.11 341.691 533.376 352.535 510.827C363.379 488.262 375.562 465.19 376.054 440.164C376.362 424.69 372.131 409.493 367.225 394.804C362.349 380.252 356.78 365.933 350.505 351.92M385.682 697.943C398.987 673.102 400.249 642.154 388.989 616.329C383.929 604.716 376.531 594.148 372.469 582.151C364.456 558.433 370.47 532.453 377.654 508.473C384.837 484.494 393.251 459.806 389.836 434.996C387.728 419.66 381.175 405.309 374.023 391.589C366.933 377.976 359.18 364.702 350.797 351.843M439.657 688.084C448.916 661.473 445.317 630.711 430.151 606.946C423.337 596.271 414.368 586.981 408.493 575.767C396.864 553.587 398.742 526.993 402.079 502.182C405.417 477.372 409.877 451.669 402.617 427.705C398.126 412.892 389.42 399.741 380.206 387.298C371.069 374.961 361.349 363.071 351.059 351.674M491.431 669.918C496.414 642.185 488.047 612.36 469.359 591.272C460.96 581.797 450.655 574.03 443.086 563.862C428.136 543.774 425.828 517.21 425.244 492.184C424.66 467.158 425.044 441.071 414.123 418.552C407.37 404.617 396.711 393.004 385.667 382.144C374.715 371.393 363.241 361.164 351.305 351.52M539.729 643.877C540.313 615.714 527.377 587.565 505.628 569.645C495.845 561.601 484.448 555.54 475.387 546.681C457.483 529.177 451.039 503.305 446.563 478.679C442.071 454.053 438.364 428.228 424.06 407.693C415.215 394.988 402.864 385.175 390.266 376.192C377.776 367.27 364.841 358.98 351.536 351.32M583.351 610.591C579.521 582.674 562.34 556.894 538.052 542.621C527.131 536.206 514.934 532.007 504.597 524.67C484.17 510.196 473.772 485.632 465.482 462.021C457.191 438.395 449.485 413.477 432.15 395.419C421.429 384.252 407.693 376.5 393.835 369.593C380.099 362.748 366.025 356.565 351.689 351.089M621.22 570.907C613.067 543.943 592.072 521.163 565.847 510.857C554.065 506.228 541.344 503.982 529.992 498.367C507.551 487.262 493.446 464.636 481.556 442.61C469.681 420.568 458.175 397.157 438.21 382.052C425.874 372.7 411.093 367.194 396.327 362.534C381.683 357.919 366.825 354.012 351.797 350.843M652.429 525.777C640.155 500.413 615.852 481.202 588.334 475.126C575.967 472.388 563.063 472.173 550.972 468.404C527.069 460.944 509.596 440.81 494.415 420.906C479.233 401.002 464.205 379.683 442.133 367.87C428.489 360.564 413.031 357.441 397.711 355.15C382.529 352.873 367.24 351.35 351.904 350.566M676.178 476.311C660.089 453.177 633.079 438.011 604.961 436.303C592.318 435.535 579.536 437.334 567 435.503C542.236 431.873 521.809 414.723 503.705 397.434C485.601 380.145 467.42 361.441 443.778 353.228C429.151 348.151 413.4 347.475 397.911 347.613C382.56 347.751 367.225 348.629 351.951 350.259M691.914 423.751C672.41 403.417 643.355 392.665 615.314 395.388C602.701 396.619 590.364 400.387 577.706 400.54C552.68 400.833 529.823 387.082 509.227 372.839C488.631 358.595 467.759 342.967 443.117 338.553C427.874 335.831 412.216 337.631 396.942 340.184C381.806 342.722 366.794 345.982 351.966 349.982M699.22 369.378C676.778 352.35 646.4 346.275 619.128 353.35C606.869 356.535 595.271 362.195 582.781 364.318C558.11 368.517 533.376 358.519 510.827 347.675C488.263 336.831 465.19 324.648 440.164 324.156C424.69 323.848 409.493 328.079 394.804 332.985C380.253 337.861 365.933 343.43 351.92 349.705M697.944 314.528C673.102 301.223 642.155 299.961 616.329 311.221C604.716 316.281 594.149 323.679 582.151 327.74C558.433 335.754 532.454 329.74 508.473 322.556C484.493 315.373 459.806 306.959 434.996 310.374C419.661 312.482 405.309 319.035 391.589 326.187C377.976 333.278 364.702 341.03 351.843 349.413M688.083 260.553C661.473 251.294 630.71 254.893 606.946 270.059C596.271 276.873 586.98 285.84 575.768 291.717C553.587 303.344 526.993 301.468 502.182 298.131C477.371 294.793 451.669 290.333 427.705 297.592C412.892 302.084 399.741 310.79 387.297 320.003C374.962 329.14 363.071 338.861 351.673 349.151M669.918 208.779C642.185 203.796 612.361 212.163 591.272 230.851C581.797 239.25 574.03 249.555 563.862 257.124C543.774 272.074 517.21 274.381 492.184 274.966C467.159 275.55 441.071 275.166 418.553 286.087C404.617 292.839 393.004 303.499 382.145 314.542C371.393 325.494 361.164 336.969 351.52 348.905M643.877 160.497C615.714 159.912 587.565 172.847 569.646 194.597C561.601 204.38 555.541 215.778 546.681 224.838C529.177 242.741 503.305 249.186 478.679 253.662C454.054 258.154 428.228 261.861 407.693 276.165C394.988 285.01 385.175 297.361 376.192 309.959C367.27 322.448 358.98 335.385 351.32 348.69M610.591 116.874C582.673 120.705 556.894 137.886 542.62 162.173C536.206 173.094 532.007 185.292 524.67 195.628C510.196 216.054 485.632 226.452 462.021 234.743C438.395 243.034 413.477 250.741 395.419 268.075C384.252 278.796 376.5 292.532 369.593 306.391C362.749 320.127 356.566 334.2 351.089 348.536M570.907 78.9896C543.943 87.1419 521.163 108.138 510.858 134.363C506.228 146.145 503.981 158.866 498.367 170.218C487.262 192.659 464.636 206.764 442.609 218.654C420.567 230.529 397.157 242.034 382.053 261.999C372.7 274.336 367.193 289.117 362.533 303.883C357.919 318.527 354.012 333.385 350.843 348.413M525.777 47.7959C500.413 60.0704 481.202 84.3733 475.126 111.891C472.388 124.257 472.173 137.162 468.404 149.252C460.945 173.155 440.81 190.629 420.906 205.811C401.002 220.992 379.683 236.02 367.87 258.092C360.565 271.736 357.442 287.194 355.151 302.515C352.873 317.696 351.351 332.985 350.566 348.321" stroke="url(#paint4_radial_23_1201)" stroke-width="0.990099" stroke-miterlimit="10"/>
</g>
</g>
<defs>
<filter id="filter0_f_23_1201" x="132.061" y="273.792" width="362.084" height="349.754" filterUnits="userSpaceOnUse" color-interpolation-filters="sRGB">
<feFlood flood-opacity="0" result="BackgroundImageFix"/>
<feBlend mode="normal" in="SourceGraphic" in2="BackgroundImageFix" result="shape"/>
<feGaussianBlur stdDeviation="57.0839" result="effect1_foregroundBlur_23_1201"/>
</filter>
<filter id="filter1_f_23_1201" x="69.6085" y="176.523" width="412.664" height="425.019" filterUnits="userSpaceOnUse" color-interpolation-filters="sRGB">
<feFlood flood-opacity="0" result="BackgroundImageFix"/>
<feBlend mode="normal" in="SourceGraphic" in2="BackgroundImageFix" result="shape"/>
<feGaussianBlur stdDeviation="59.8022" result="effect1_foregroundBlur_23_1201"/>
</filter>
<filter id="filter2_f_23_1201" x="89.7061" y="101.962" width="336.066" height="342.209" filterUnits="userSpaceOnUse" color-interpolation-filters="sRGB">
<feFlood flood-opacity="0" result="BackgroundImageFix"/>
<feBlend mode="normal" in="SourceGraphic" in2="BackgroundImageFix" result="shape"/>
<feGaussianBlur stdDeviation="59.8022" result="effect1_foregroundBlur_23_1201"/>
</filter>
<filter id="filter3_f_23_1201" x="152.278" y="119.582" width="385.543" height="365.879" filterUnits="userSpaceOnUse" color-interpolation-filters="sRGB">
<feFlood flood-opacity="0" result="BackgroundImageFix"/>
<feBlend mode="normal" in="SourceGraphic" in2="BackgroundImageFix" result="shape"/>
<feGaussianBlur stdDeviation="51.6474" result="effect1_foregroundBlur_23_1201"/>
</filter>
<linearGradient id="paint0_linear_23_1201" x1="205.532" y1="713.829" x2="498.719" y2="612.822" gradientUnits="userSpaceOnUse">
<stop stop-color="#01D396"/>
<stop offset="0.668612" stop-color="#01F5FF"/>
<stop offset="1" stop-color="#FE8C43"/>
</linearGradient>
<linearGradient id="paint1_linear_23_1201" x1="185.286" y1="630.129" x2="408.332" y2="491.753" gradientUnits="userSpaceOnUse">
<stop stop-color="#FE8C43"/>
<stop offset="1" stop-color="#A66CFF"/>
</linearGradient>
<linearGradient id="paint2_linear_23_1201" x1="256.132" y1="396.48" x2="360.721" y2="283.738" gradientUnits="userSpaceOnUse">
<stop stop-color="#B2EBF2"/>
<stop offset="0.653477" stop-color="#D1C4E9"/>
<stop offset="1" stop-color="#A66CFF"/>
</linearGradient>
<linearGradient id="paint3_linear_23_1201" x1="243.247" y1="247.974" x2="323.3" y2="421.176" gradientUnits="userSpaceOnUse">
<stop stop-color="#01D396"/>
<stop offset="1" stop-color="#00BCD4"/>
</linearGradient>
<radialGradient id="paint4_radial_23_1201" cx="0" cy="0" r="1" gradientUnits="userSpaceOnUse" gradientTransform="translate(350.105 350.105) rotate(90) scale(407.992)">
<stop stop-color="white"/>
<stop offset="1" stop-color="white" stop-opacity="0"/>
</radialGradient>
<clipPath id="clip0_23_1201">
<rect width="700" height="700" fill="white"/>
</clipPath>
</defs>
</svg>
