<svg width="1024" height="1000" viewBox="0 0 1024 1000" fill="none" xmlns="http://www.w3.org/2000/svg">
<g opacity="0.560872" filter="url(#filter0_f_43_4607)">
<ellipse cx="249.099" cy="199.839" rx="249.099" ry="199.839" transform="matrix(0.894045 0.447977 -0.460043 0.887897 338.489 402.885)" fill="url(#paint0_linear_43_4607)"/>
</g>
<g filter="url(#filter1_f_43_4607)">
<rect width="374.172" height="337.914" transform="matrix(0.22702 0.967008 -0.981652 0.22287 744.473 116.432)" fill="url(#paint1_linear_43_4607)" fill-opacity="0.39"/>
</g>
<g opacity="0.663063" filter="url(#filter2_f_43_4607)">
<path fill-rule="evenodd" clip-rule="evenodd" d="M687.758 366.949C693.494 367.413 698.803 370.073 702.557 374.364L833.301 523.821C839.169 530.528 840.312 540.117 836.193 548.067L772.543 670.914C768.424 678.864 759.863 683.59 750.896 682.865L551.092 666.695C545.356 666.23 540.047 663.57 536.294 659.279L405.549 509.823C399.681 503.115 398.538 493.526 402.657 485.576L466.307 362.729C470.426 354.779 478.987 350.053 487.954 350.779L687.758 366.949Z" fill="url(#paint2_linear_43_4607)"/>
</g>
<defs>
<filter id="filter0_f_43_4607" x="141.278" y="395.29" width="655.967" height="593.243" filterUnits="userSpaceOnUse" color-interpolation-filters="sRGB">
<feFlood flood-opacity="0" result="BackgroundImageFix"/>
<feBlend mode="normal" in="SourceGraphic" in2="BackgroundImageFix" result="shape"/>
<feGaussianBlur stdDeviation="43.4925" result="effect1_foregroundBlur_43_4607"/>
</filter>
<filter id="filter1_f_43_4607" x="298.591" y="2.26368" width="644.994" height="665.474" filterUnits="userSpaceOnUse" color-interpolation-filters="sRGB">
<feFlood flood-opacity="0" result="BackgroundImageFix"/>
<feBlend mode="normal" in="SourceGraphic" in2="BackgroundImageFix" result="shape"/>
<feGaussianBlur stdDeviation="57.0839" result="effect1_foregroundBlur_43_4607"/>
</filter>
<filter id="filter2_f_43_4607" x="280.602" y="231.101" width="677.647" height="571.441" filterUnits="userSpaceOnUse" color-interpolation-filters="sRGB">
<feFlood flood-opacity="0" result="BackgroundImageFix"/>
<feBlend mode="normal" in="SourceGraphic" in2="BackgroundImageFix" result="shape"/>
<feGaussianBlur stdDeviation="59.8022" result="effect1_foregroundBlur_43_4607"/>
</filter>
<linearGradient id="paint0_linear_43_4607" x1="-75.1507" y1="79.6466" x2="59.2051" y2="499.852" gradientUnits="userSpaceOnUse">
<stop stop-color="#01D396"/>
<stop offset="1" stop-color="#00BCD4"/>
</linearGradient>
<linearGradient id="paint1_linear_43_4607" x1="-179.337" y1="83.2974" x2="133.492" y2="477.58" gradientUnits="userSpaceOnUse">
<stop stop-color="#D81B60"/>
<stop offset="0.59346" stop-color="#84FFFF"/>
<stop offset="1" stop-color="#311B92"/>
</linearGradient>
<linearGradient id="paint2_linear_43_4607" x1="482.741" y1="282.959" x2="533.998" y2="718.168" gradientUnits="userSpaceOnUse">
<stop stop-color="#01D396"/>
<stop offset="0.668612" stop-color="#01F5FF"/>
<stop offset="1" stop-color="#FE8C43"/>
</linearGradient>
</defs>
</svg>
