<svg width="973" height="1000" viewBox="0 0 973 1000" fill="none" xmlns="http://www.w3.org/2000/svg">
<g opacity="0.667411" filter="url(#filter0_f_43_4605)">
<path fill-rule="evenodd" clip-rule="evenodd" d="M281.018 817.267C259.929 814.612 250.73 789.287 265.623 774.889L522.92 526.147C535.979 513.522 558.373 518.93 564.656 536.227L671.675 830.829C677.959 848.126 663.825 865.456 645.333 863.128L281.018 817.267Z" fill="url(#paint0_linear_43_4605)"/>
</g>
<g opacity="0.739328" filter="url(#filter1_f_43_4605)">
<path fill-rule="evenodd" clip-rule="evenodd" d="M156.86 639.312C150.877 634.154 148.042 626.35 149.407 618.793L188.239 403.815C189.622 396.157 195.107 389.919 202.613 387.469L411.307 319.356C418.813 316.907 427.187 318.621 433.251 323.848L603.484 470.593C609.468 475.751 612.303 483.555 610.938 491.111L572.106 706.09C570.723 713.748 565.237 719.986 557.732 722.435L349.037 790.548C341.532 792.998 333.158 791.284 327.094 786.056L156.86 639.312Z" fill="url(#paint1_linear_43_4605)"/>
</g>
<g filter="url(#filter2_f_43_4605)">
<path fill-rule="evenodd" clip-rule="evenodd" d="M209.8 316.821C203.844 311.67 201.019 303.895 202.367 296.361L222.34 184.724C223.713 177.052 229.203 170.798 236.72 168.345L344.434 133.189C351.952 130.736 360.34 132.46 366.405 137.705L454.654 214.02C460.61 219.17 463.434 226.946 462.086 234.48L442.114 346.116C440.741 353.789 435.251 360.043 427.734 362.496L320.019 397.652C312.502 400.105 304.114 398.381 298.049 393.136L209.8 316.821Z" fill="url(#paint2_linear_43_4605)"/>
</g>
<g opacity="0.625093" filter="url(#filter3_f_43_4605)">
<ellipse cx="196.427" cy="237.602" rx="196.427" ry="237.602" transform="matrix(-0.341435 -0.939905 0.950649 -0.31027 403.396 597.303)" fill="url(#paint3_linear_43_4605)"/>
</g>
<defs>
<filter id="filter0_f_43_4605" x="144.14" y="405.059" width="643.218" height="572.448" filterUnits="userSpaceOnUse" color-interpolation-filters="sRGB">
<feFlood flood-opacity="0" result="BackgroundImageFix"/>
<feBlend mode="normal" in="SourceGraphic" in2="BackgroundImageFix" result="shape"/>
<feGaussianBlur stdDeviation="57.0839" result="effect1_foregroundBlur_43_4605"/>
</filter>
<filter id="filter1_f_43_4605" x="29.4649" y="198.654" width="701.415" height="712.597" filterUnits="userSpaceOnUse" color-interpolation-filters="sRGB">
<feFlood flood-opacity="0" result="BackgroundImageFix"/>
<feBlend mode="normal" in="SourceGraphic" in2="BackgroundImageFix" result="shape"/>
<feGaussianBlur stdDeviation="59.8022" result="effect1_foregroundBlur_43_4605"/>
</filter>
<filter id="filter2_f_43_4605" x="82.4317" y="12.4868" width="499.59" height="505.867" filterUnits="userSpaceOnUse" color-interpolation-filters="sRGB">
<feFlood flood-opacity="0" result="BackgroundImageFix"/>
<feBlend mode="normal" in="SourceGraphic" in2="BackgroundImageFix" result="shape"/>
<feGaussianBlur stdDeviation="59.8022" result="effect1_foregroundBlur_43_4605"/>
</filter>
<filter id="filter3_f_43_4605" x="223.227" y="36.8148" width="677.958" height="604.29" filterUnits="userSpaceOnUse" color-interpolation-filters="sRGB">
<feFlood flood-opacity="0" result="BackgroundImageFix"/>
<feBlend mode="normal" in="SourceGraphic" in2="BackgroundImageFix" result="shape"/>
<feGaussianBlur stdDeviation="51.6474" result="effect1_foregroundBlur_43_4605"/>
</filter>
<linearGradient id="paint0_linear_43_4605" x1="194.712" y1="1365.87" x2="957.824" y2="1088.51" gradientUnits="userSpaceOnUse">
<stop stop-color="#01D396"/>
<stop offset="0.668612" stop-color="#01F5FF"/>
<stop offset="1" stop-color="#FE8C43"/>
</linearGradient>
<linearGradient id="paint1_linear_43_4605" x1="141.384" y1="1156.9" x2="711.002" y2="784.078" gradientUnits="userSpaceOnUse">
<stop stop-color="#FE8C43"/>
<stop offset="1" stop-color="#A66CFF"/>
</linearGradient>
<linearGradient id="paint2_linear_43_4605" x1="327.995" y1="573.547" x2="587.707" y2="278.19" gradientUnits="userSpaceOnUse">
<stop stop-color="#B2EBF2"/>
<stop offset="0.653477" stop-color="#D1C4E9"/>
<stop offset="1" stop-color="#A66CFF"/>
</linearGradient>
<linearGradient id="paint3_linear_43_4605" x1="-59.26" y1="94.6973" x2="156.159" y2="541.532" gradientUnits="userSpaceOnUse">
<stop stop-color="#01D396"/>
<stop offset="1" stop-color="#00BCD4"/>
</linearGradient>
</defs>
</svg>
