<svg width="451" height="514" viewBox="0 0 451 514" fill="none" xmlns="http://www.w3.org/2000/svg">
<g opacity="0.560872" filter="url(#filter0_f_23_1288)">
<ellipse cx="99.0007" cy="79.4227" rx="99.0007" ry="79.4227" transform="matrix(0.894045 0.447977 -0.460043 0.887897 134.527 228.121)" fill="url(#paint0_linear_23_1288)"/>
</g>
<g filter="url(#filter1_f_23_1288)">
<rect width="148.709" height="134.299" transform="matrix(0.22702 0.967008 -0.981652 0.22287 295.881 114.274)" fill="url(#paint1_linear_23_1288)" fill-opacity="0.39"/>
</g>
<g opacity="0.663063" filter="url(#filter2_f_23_1288)">
<path fill-rule="evenodd" clip-rule="evenodd" d="M267.95 213.402C273.686 213.866 278.995 216.526 282.749 220.817L325.335 269.499C331.203 276.206 332.347 285.795 328.227 293.745L311.142 326.72C307.023 334.67 298.463 339.396 289.495 338.67L224.414 333.404C218.678 332.939 213.369 330.279 209.616 325.988L167.029 277.307C161.161 270.599 160.018 261.01 164.137 253.06L181.222 220.086C185.341 212.135 193.902 207.409 202.869 208.135L267.95 213.402Z" fill="url(#paint2_linear_23_1288)"/>
</g>
<g clip-path="url(#clip0_23_1288)">
<path d="M333.122 195.927L336.074 254.694C336.301 259.215 338.129 263.517 341.238 266.855L393.484 322.903C401.951 331.988 399.772 346.457 388.991 352.727L329.851 387.092C325.623 389.55 320.616 390.36 315.815 389.358L218.552 369.131C212.842 367.942 206.889 369.318 202.31 372.884L135.957 424.556C130.031 429.173 121.943 430.031 115.151 426.768L34.898 388.175C26.2795 384.027 21.9486 374.356 24.6575 365.282L38.8234 317.801C41.3808 309.218 37.6555 300.026 29.7994 295.548L10.3023 284.432C1.05127 279.159 -2.23609 267.569 2.9004 258.33L39.1369 193.165C44.0463 184.331 55.0058 180.679 64.3436 184.763L109.35 204.436C116.206 207.432 124.197 206.323 129.945 201.573L191.198 150.941C197.557 145.689 206.57 144.932 213.734 149.053L239.968 164.141C245.18 167.137 248.705 172.33 249.538 178.221L250.712 186.559C252.912 202.17 272.074 208.807 283.688 197.985L299.984 182.795C307.472 175.817 319.156 175.721 326.759 182.582C330.581 186.032 332.868 190.824 333.128 195.927H333.122Z" stroke="url(#paint3_radial_23_1288)" stroke-width="0.83632" stroke-miterlimit="10"/>
<path d="M42.1806 382.646C34.065 378.744 30.118 369.227 32.6646 360.687C32.6862 360.612 45.987 315.839 45.9167 315.802C48.3282 307.725 44.6461 298.976 37.255 294.759C37.1739 294.711 18.7961 284.15 18.8393 284.07C10.1343 279.107 7.35528 267.628 12.189 258.933C12.2322 258.858 46.4304 197.494 46.5115 197.526C51.1341 189.215 61.8396 185.947 70.6261 189.791C70.6852 189.817 113.118 208.322 113.167 208.285C119.623 211.105 127.673 209.618 133.085 205.15C133.14 205.102 190.874 157.456 190.933 157.488C196.913 152.546 205.629 151.965 212.371 155.841C212.414 155.867 237.134 170.113 237.145 170.166C242.049 172.986 245.38 177.944 246.158 183.489C246.18 183.622 247.451 191.528 247.553 191.438C249.624 206.131 267.802 212.246 278.734 202.058C278.799 201.999 294.241 187.701 294.306 187.765C301.357 181.196 312.349 181.111 319.507 187.562C319.54 187.594 319.562 187.631 319.562 187.679C323.157 190.926 325.336 195.948 325.579 200.752C325.579 200.789 328.375 256.139 328.402 256.171C328.618 260.431 330.792 264.968 333.716 268.102C333.792 268.183 382.94 321.059 382.848 321.112C390.818 329.664 388.25 343.583 378.107 349.48C378.069 349.501 322.362 381.852 322.324 381.841C318.345 384.155 312.787 384.736 308.267 383.798C308.218 383.787 216.621 364.765 216.583 364.797C211.209 363.678 205.029 365.426 200.719 368.779C200.665 368.822 138.147 417.46 138.087 417.428C132.507 421.773 124.197 422.247 117.806 419.171C117.73 419.134 42.1644 382.726 42.186 382.646H42.1806Z" stroke="url(#paint4_radial_23_1288)" stroke-width="0.83632" stroke-miterlimit="10"/>
<path d="M49.469 377.118C41.8618 373.46 38.2879 364.093 40.6777 356.091C40.7209 355.942 53.1567 313.883 53.0161 313.808C55.276 306.237 51.6479 297.931 44.7166 293.981C44.5543 293.89 27.2958 283.878 27.3823 283.718C19.218 279.064 16.9525 267.703 21.4834 259.551C21.5699 259.396 53.7299 201.834 53.8921 201.903C58.2283 194.109 68.6744 191.23 76.9196 194.834C77.0384 194.887 116.892 212.225 116.989 212.145C123.04 214.789 131.156 212.928 136.233 208.733C136.341 208.642 190.55 163.96 190.674 164.035C196.281 159.402 204.694 158.997 211.014 162.633C211.106 162.686 234.312 176.089 234.329 176.19C238.924 178.835 242.06 183.558 242.79 188.756C242.828 189.028 244.196 196.503 244.401 196.311C246.343 210.082 263.536 215.674 273.782 206.125C273.912 206.003 288.494 192.6 288.629 192.723C295.237 186.565 305.547 186.485 312.252 192.536C312.317 192.595 312.36 192.68 312.365 192.771C315.739 195.815 317.81 201.066 318.037 205.571C318.037 205.651 320.675 257.578 320.73 257.637C320.929 261.63 323.449 266.402 326.196 269.345C326.342 269.505 372.402 319.209 372.213 319.321C379.685 327.339 376.733 340.704 367.217 346.233C367.142 346.276 314.874 376.611 314.787 376.595C311.057 378.765 304.942 379.122 300.708 378.243C300.611 378.221 214.685 360.399 214.604 360.462C209.565 359.412 203.158 361.529 199.119 364.674C199.017 364.754 140.326 410.364 140.206 410.305C134.978 414.379 126.441 414.463 120.45 411.585C120.299 411.51 49.4151 377.288 49.4638 377.128L49.469 377.118Z" stroke="url(#paint5_radial_23_1288)" stroke-width="0.83632" stroke-miterlimit="10"/>
<path d="M56.7577 371.589C49.6584 368.177 46.463 358.964 48.6904 351.495C48.7557 351.271 60.3262 311.926 60.1207 311.809C62.2294 304.739 58.65 296.881 52.1835 293.192C51.9403 293.053 35.8007 283.601 35.9359 283.355C28.3177 279.01 26.5605 267.761 30.7886 260.153C30.9183 259.924 61.0454 206.163 61.2886 206.269C65.333 198.992 75.5301 196.502 83.2241 199.861C83.4024 199.941 120.677 216.111 120.828 215.989C126.478 218.457 134.659 216.217 139.39 212.304C139.558 212.166 190.236 170.459 190.425 170.565C195.659 166.242 203.769 166.013 209.668 169.403C209.803 169.483 231.501 182.044 231.522 182.198C235.816 184.667 238.751 189.161 239.433 194.013C239.492 194.418 240.957 201.461 241.26 201.178C243.071 214.032 259.281 219.102 268.846 210.188C269.04 210.007 282.768 197.494 282.968 197.675C289.137 191.928 298.756 191.854 305.018 197.499C305.115 197.59 305.18 197.713 305.185 197.846C308.332 200.687 310.294 206.168 310.505 210.375C310.511 210.492 312.987 259.001 313.068 259.092C313.258 262.819 316.123 267.825 318.686 270.571C318.908 270.81 361.875 317.342 361.595 317.508C368.569 324.987 365.228 337.804 356.35 342.965C356.242 343.029 307.402 371.349 307.277 371.322C303.795 373.348 297.129 373.482 293.177 372.66C293.025 372.629 212.771 356.011 212.653 356.101C207.949 355.126 201.314 357.605 197.54 360.542C197.384 360.665 142.531 403.236 142.353 403.151C137.471 406.952 128.717 406.653 123.121 403.961C122.894 403.854 56.6929 371.813 56.763 371.578L56.7577 371.589Z" stroke="url(#paint6_radial_23_1288)" stroke-width="0.83632" stroke-miterlimit="10"/>
<path d="M64.0473 366.06C57.4563 362.888 54.6394 353.836 56.7105 346.899C56.7968 346.601 67.5023 309.969 67.2266 309.815C69.1837 303.252 65.6534 295.836 59.6461 292.408C59.3219 292.227 44.3017 283.323 44.4801 282.998C37.408 278.968 36.1536 267.831 40.0844 260.767C40.2574 260.457 68.3459 210.497 68.6701 210.641C72.4279 203.887 82.3714 201.78 89.5136 204.9C89.7516 205.006 124.447 220.009 124.647 219.843C129.892 222.136 138.137 219.523 142.533 215.887C142.754 215.706 189.913 176.968 190.161 177.112C195.022 173.098 202.83 173.045 208.307 176.195C208.491 176.302 228.669 188.02 228.701 188.223C232.686 190.515 235.422 194.775 236.06 199.28C236.136 199.824 237.704 206.429 238.109 206.056C239.791 217.993 255.011 222.541 263.895 214.261C264.154 214.016 277.027 202.399 277.293 202.639C283.019 197.302 291.95 197.233 297.768 202.474C297.903 202.596 297.979 202.762 297.99 202.937C300.915 205.576 302.764 211.286 302.959 215.189C302.964 215.349 305.289 260.436 305.397 260.553C305.57 264.013 308.787 269.254 311.166 271.802C311.464 272.117 351.339 315.482 350.961 315.701C357.438 322.647 353.707 334.909 345.462 339.702C345.316 339.788 299.915 366.093 299.747 366.06C296.514 367.937 289.296 367.852 285.625 367.089C285.424 367.046 210.843 351.628 210.681 351.756C206.312 350.85 199.451 353.702 195.947 356.427C195.741 356.587 144.717 396.129 144.479 396.017C139.948 399.547 130.968 398.859 125.777 396.364C125.474 396.22 63.9557 366.37 64.053 366.05L64.0473 366.06Z" stroke="url(#paint7_radial_23_1288)" stroke-width="0.83632" stroke-miterlimit="10"/>
<path d="M71.335 360.532C65.2467 357.605 62.8084 348.707 64.7226 342.304C64.8361 341.931 74.6708 308.013 74.325 307.815C76.131 301.759 72.6541 294.786 67.107 291.625C66.7069 291.395 52.8001 283.046 53.0219 282.641C46.4906 278.92 45.7499 267.9 49.378 261.38C49.5941 260.996 75.6441 214.837 76.0552 215.013C79.5211 208.776 89.2151 207.059 95.8061 209.938C96.1037 210.066 128.225 223.906 128.474 223.703C133.313 225.82 141.624 222.829 145.679 219.475C145.955 219.246 189.588 183.478 189.901 183.659C194.389 179.954 201.894 180.077 206.949 182.982C207.176 183.11 225.846 193.991 225.884 194.248C229.56 196.364 232.102 200.389 232.691 204.547C232.788 205.225 234.448 211.404 234.956 210.929C236.508 221.949 250.744 225.974 258.946 218.329C259.271 218.025 271.285 207.298 271.614 207.597C276.903 202.671 285.148 202.607 290.517 207.448C290.684 207.597 290.782 207.805 290.793 208.029C293.49 210.46 295.237 216.405 295.416 220.009C295.426 220.206 297.589 261.875 297.724 262.019C297.886 265.213 301.449 270.688 303.645 273.045C304.012 273.439 340.795 313.632 340.33 313.904C346.31 320.318 342.195 332.03 334.583 336.45C334.399 336.557 292.431 360.851 292.225 360.804C289.241 362.536 281.471 362.227 278.081 361.524C277.833 361.47 208.917 347.257 208.717 347.411C204.683 346.574 197.595 349.795 194.362 352.311C194.102 352.513 146.911 389.023 146.62 388.879C142.435 392.136 133.232 391.064 128.442 388.756C128.069 388.575 71.232 360.91 71.346 360.516L71.335 360.532Z" stroke="url(#paint8_radial_23_1288)" stroke-width="0.83632" stroke-miterlimit="10"/>
<path d="M78.6237 355.003C73.0442 352.321 70.9841 343.578 72.7356 337.708C72.8711 337.26 81.8407 306.056 81.4301 305.821C83.0844 300.266 79.6566 293.741 74.574 290.84C74.0928 290.563 61.3058 282.769 61.5705 282.284C55.5851 278.872 55.3529 267.964 58.6782 261.987C58.9324 261.524 82.9547 219.172 83.4411 219.384C86.6205 213.669 96.0608 212.331 102.106 214.976C102.462 215.13 132.006 227.803 132.303 227.558C136.742 229.498 145.112 226.134 148.831 223.058C149.161 222.786 189.269 189.988 189.647 190.206C193.762 186.805 200.964 187.109 205.598 189.774C205.868 189.929 223.029 199.962 223.072 200.272C226.446 202.212 228.787 206.003 229.323 209.815C229.436 210.631 231.199 216.372 231.805 215.807C233.227 225.905 246.479 229.408 253.994 222.407C254.383 222.045 265.543 212.209 265.938 212.571C270.782 208.056 278.341 207.997 283.261 212.432C283.461 212.614 283.58 212.864 283.597 213.131C286.067 215.359 287.706 221.538 287.868 224.838C287.879 225.073 289.885 263.325 290.047 263.501C290.193 266.428 294.107 272.138 296.119 274.297C296.562 274.772 330.252 311.793 329.69 312.123C335.167 318.004 330.668 329.162 323.694 333.214C323.472 333.342 284.943 355.622 284.694 355.568C281.958 357.157 273.637 356.624 270.528 355.979C270.231 355.915 206.982 342.901 206.744 343.088C203.051 342.32 195.73 345.908 192.767 348.216C192.459 348.456 149.102 381.937 148.745 381.766C144.911 384.752 135.482 383.291 131.091 381.18C130.643 380.962 78.4887 355.483 78.6294 355.009L78.6237 355.003Z" stroke="url(#paint9_radial_23_1288)" stroke-width="0.83632" stroke-miterlimit="10"/>
<path d="M85.9117 349.474C80.84 347.038 79.1586 338.449 80.748 333.113C80.9049 332.59 89.0095 304.099 88.5283 303.822C90.0314 298.773 86.6522 292.69 82.0346 290.057C81.4724 289.737 69.8046 282.491 70.1126 281.926C64.6733 278.824 64.9494 268.033 67.9719 262.6C68.269 262.062 90.2532 223.506 90.8211 223.756C93.7082 218.558 102.9 217.609 108.393 220.014C108.81 220.195 135.773 231.7 136.125 231.412C140.158 233.176 148.593 229.434 151.972 226.641C152.361 226.32 188.944 196.497 189.376 196.747C193.118 193.656 200.017 194.135 204.235 196.556C204.554 196.737 220.195 205.928 220.25 206.291C223.315 208.055 225.461 211.617 225.948 215.082C226.083 216.031 227.944 221.341 228.652 220.685C229.944 229.866 242.212 232.846 249.046 226.48C249.5 226.054 259.801 217.119 260.266 217.534C264.672 213.429 271.544 213.376 276.015 217.407C276.248 217.614 276.388 217.907 276.405 218.222C278.654 220.248 280.179 226.656 280.33 229.653C280.346 229.93 282.19 264.759 282.379 264.962C282.514 267.622 286.77 273.572 288.603 275.534C289.116 276.089 319.719 309.937 319.059 310.321C324.039 315.663 319.151 326.272 312.809 329.956C312.549 330.106 277.459 350.37 277.162 350.311C274.674 351.756 265.802 350.999 262.974 350.413C262.628 350.338 205.051 338.529 204.77 338.743C201.412 338.044 193.864 342.005 191.171 344.1C190.809 344.383 151.286 374.83 150.869 374.628C147.382 377.341 137.73 375.497 133.74 373.577C133.216 373.327 85.7438 350.029 85.9117 349.48V349.474Z" stroke="url(#paint10_radial_23_1288)" stroke-width="0.83632" stroke-miterlimit="10"/>
<path d="M93.1997 343.946C88.6364 341.75 87.3336 333.32 88.7661 328.517C88.9445 327.92 96.1845 302.143 95.6384 301.829C96.9956 297.286 93.6594 291.646 89.5015 289.273C88.8582 288.905 78.3039 282.215 78.6663 281.569C73.7678 278.776 74.5518 268.103 77.2714 263.208C77.6119 262.595 97.5579 227.84 98.2122 228.123C100.813 223.447 109.75 222.882 114.692 225.047C115.168 225.254 139.552 235.592 139.952 235.262C143.581 236.85 152.08 232.734 155.124 230.218C155.567 229.85 188.625 203.002 189.122 203.284C192.486 200.501 199.087 201.157 202.882 203.337C203.245 203.545 217.378 211.894 217.438 212.304C220.195 213.893 222.147 217.22 222.585 220.339C222.736 221.427 224.694 226.305 225.505 225.548C226.667 233.811 237.951 236.269 244.099 230.538C244.618 230.053 254.064 222.008 254.593 222.482C258.557 218.787 264.742 218.74 268.77 222.37C269.035 222.61 269.197 222.946 269.214 223.298C271.236 225.121 272.652 231.759 272.787 234.456C272.804 234.771 274.491 266.183 274.707 266.418C274.826 268.812 279.433 274.996 281.082 276.761C281.671 277.395 309.181 308.071 308.429 308.509C312.912 313.317 307.64 323.372 301.93 326.688C301.639 326.859 269.976 345.108 269.641 345.039C267.402 346.34 257.973 345.359 255.432 344.831C255.032 344.746 203.126 334.136 202.807 334.387C199.785 333.758 192.01 338.087 189.587 339.974C189.176 340.294 153.481 367.713 153.01 367.484C149.874 369.925 140.001 367.692 136.406 365.965C135.806 365.677 93.0161 344.57 93.2054 343.935L93.1997 343.946Z" stroke="url(#paint11_radial_23_1288)" stroke-width="0.83632" stroke-miterlimit="10"/>
<path d="M100.489 338.418C96.4335 336.466 95.5036 328.192 96.7797 323.922C96.9795 323.25 103.354 300.181 102.738 299.835C103.944 295.794 100.662 290.596 96.9633 288.49C96.2389 288.074 86.8043 281.937 87.2097 281.212C82.8572 278.733 84.1495 268.167 86.5664 263.822C86.9502 263.129 104.863 232.175 105.593 232.494C107.907 228.336 116.585 228.16 120.981 230.085C121.516 230.319 143.327 239.489 143.776 239.121C147.004 240.534 155.563 236.04 158.271 233.806C158.769 233.396 188.301 209.511 188.863 209.836C191.853 207.363 198.152 208.194 201.526 210.13C201.937 210.364 214.557 217.871 214.621 218.335C217.076 219.748 218.828 222.839 219.217 225.612C219.39 226.833 221.445 231.279 222.353 230.431C223.386 237.778 233.686 239.708 239.152 234.616C239.742 234.067 248.322 226.918 248.922 227.451C252.448 224.167 257.946 224.124 261.52 227.35C261.818 227.622 262.001 227.995 262.018 228.395C263.818 230.015 265.126 236.882 265.246 239.281C265.262 239.633 266.797 267.628 267.041 267.889C267.149 270.017 272.101 276.435 273.567 278.003C274.232 278.717 298.643 306.227 297.8 306.717C301.785 310.993 296.124 320.494 291.052 323.442C290.722 323.634 262.499 339.868 262.121 339.793C260.131 340.95 250.149 339.745 247.89 339.276C247.441 339.186 201.207 329.775 200.845 330.053C198.158 329.493 190.156 334.19 187.998 335.869C187.533 336.232 155.676 360.612 155.141 360.356C152.351 362.526 142.256 359.908 139.061 358.373C138.385 358.048 100.278 339.127 100.494 338.418H100.489Z" stroke="url(#paint12_radial_23_1288)" stroke-width="0.83632" stroke-miterlimit="10"/>
<path d="M107.777 332.889C104.225 331.183 103.679 323.063 104.793 319.326C105.014 318.579 110.524 298.225 109.837 297.835C110.892 294.3 107.658 289.545 104.425 287.706C103.62 287.247 95.3037 281.66 95.7525 280.855C91.946 278.685 93.7467 268.236 95.8607 264.429C96.2876 263.661 112.162 236.509 112.979 236.866C115.001 233.23 123.43 233.438 127.279 235.118C127.875 235.379 147.107 243.381 147.604 242.97C150.426 244.207 159.05 239.34 161.418 237.383C161.97 236.924 187.982 216.015 188.604 216.372C191.221 214.208 197.217 215.21 200.169 216.911C200.623 217.172 211.729 223.836 211.804 224.348C213.951 225.58 215.503 228.448 215.849 230.873C216.038 232.233 218.195 236.242 219.207 235.304C220.109 241.734 229.42 243.141 234.205 238.684C234.859 238.076 242.586 231.817 243.245 232.414C246.327 229.541 251.139 229.504 254.27 232.324C254.605 232.622 254.799 233.043 254.827 233.486C256.4 234.904 257.6 242 257.703 244.101C257.725 244.495 259.098 269.067 259.368 269.36C259.461 271.221 264.764 277.875 266.046 279.25C266.781 280.039 288.106 304.382 287.165 304.926C290.652 308.668 284.602 317.62 280.163 320.2C279.795 320.414 255.005 334.632 254.589 334.547C252.848 335.56 242.315 334.131 240.336 333.72C239.839 333.619 199.272 325.409 198.872 325.718C196.52 325.227 188.29 330.298 186.404 331.764C185.889 332.163 157.861 353.516 157.271 353.233C154.833 355.137 144.511 352.124 141.716 350.781C140.964 350.418 107.545 333.683 107.777 332.894V332.889Z" stroke="url(#paint13_radial_23_1288)" stroke-width="0.83632" stroke-miterlimit="10"/>
<path d="M115.065 327.36C112.021 325.899 111.853 317.935 112.805 314.731C113.048 313.909 117.692 296.268 116.941 295.842C117.844 292.814 114.659 288.501 111.891 286.922C111.004 286.415 103.808 281.383 104.3 280.498C101.034 278.637 103.348 268.305 105.16 265.042C105.63 264.195 119.466 240.849 120.363 241.238C122.099 238.119 130.274 238.716 133.573 240.156C134.226 240.443 150.879 247.279 151.431 246.825C153.853 247.881 162.542 242.64 164.57 240.966C165.181 240.465 187.662 222.525 188.349 222.92C190.593 221.064 196.286 222.243 198.816 223.698C199.314 223.986 208.911 229.807 208.992 230.372C210.83 231.428 212.188 234.062 212.479 236.141C212.69 237.634 214.94 241.217 216.054 240.177C216.832 245.684 225.153 246.575 229.251 242.752C229.97 242.086 236.843 236.717 237.567 237.373C240.211 234.91 244.331 234.878 247.018 237.298C247.386 237.629 247.602 238.087 247.629 238.577C248.981 239.793 250.068 247.118 250.16 248.915C250.181 249.347 251.398 270.502 251.695 270.822C251.776 272.416 257.426 279.304 258.524 280.482C259.335 281.351 277.567 302.522 276.534 303.119C279.524 306.323 273.09 314.725 269.283 316.938C268.878 317.172 247.527 329.381 247.067 329.285C245.575 330.154 234.491 328.501 232.793 328.15C232.247 328.037 197.346 321.027 196.908 321.373C194.891 320.952 186.435 326.39 184.818 327.648C184.251 328.091 160.055 346.409 159.406 346.095C157.314 347.726 146.77 344.33 144.375 343.178C143.548 342.784 114.811 328.235 115.07 327.366L115.065 327.36Z" stroke="url(#paint14_radial_23_1288)" stroke-width="0.83632" stroke-miterlimit="10"/>
<path d="M122.359 321.832C119.823 320.611 120.029 312.806 120.829 310.135C121.094 309.239 124.873 294.311 124.051 293.842C124.803 291.32 121.672 287.45 119.358 286.133C118.39 285.584 112.313 281.1 112.848 280.136C110.129 278.584 112.946 268.364 114.46 265.65C114.973 264.728 126.776 245.178 127.75 245.604C129.193 243.008 137.119 243.989 139.866 245.188C140.585 245.503 154.654 251.17 155.254 250.674C157.271 251.554 166.025 245.94 167.711 244.543C168.376 243.994 187.333 229.029 188.085 229.456C189.955 227.909 195.345 229.264 197.454 230.479C198 230.794 206.084 235.773 206.17 236.386C207.7 237.266 208.863 239.665 209.106 241.398C209.333 243.029 211.685 246.175 212.896 245.044C213.545 249.635 220.882 250.003 224.299 246.82C225.083 246.089 231.096 241.616 231.89 242.331C234.091 240.278 237.53 240.252 239.763 242.267C240.163 242.629 240.401 243.131 240.428 243.664C241.552 244.677 242.531 252.231 242.607 253.729C242.629 254.204 243.688 271.936 244.012 272.282C244.077 273.615 250.074 280.738 250.993 281.714C251.88 282.662 267.019 300.661 265.888 301.317C268.381 303.987 261.558 311.836 258.384 313.68C257.941 313.936 240.022 324.129 239.525 324.023C238.281 324.748 226.646 322.871 225.229 322.578C224.634 322.455 195.405 316.649 194.924 317.023C193.242 316.671 184.559 322.477 183.213 323.527C182.591 324.007 162.234 339.297 161.52 338.956C159.78 340.315 149.015 336.535 147.014 335.57C146.111 335.139 122.056 322.775 122.343 321.826L122.359 321.832Z" stroke="url(#paint15_radial_23_1288)" stroke-width="0.83632" stroke-miterlimit="10"/>
<path d="M129.647 316.303C127.619 315.327 128.204 307.677 128.842 305.539C129.134 304.569 132.043 292.355 131.15 291.848C131.751 289.828 128.669 286.405 126.819 285.355C125.771 284.758 120.812 280.828 121.396 279.783C119.217 278.541 122.548 268.438 123.759 266.263C124.316 265.261 134.081 249.517 135.141 249.981C136.298 247.902 143.97 249.272 146.165 250.232C146.944 250.573 158.439 255.073 159.087 254.534C160.699 255.238 169.517 249.245 170.869 248.131C171.588 247.534 187.024 235.538 187.836 236.008C189.333 234.771 194.421 236.301 196.108 237.271C196.697 237.613 203.266 241.75 203.364 242.416C204.591 243.12 205.554 245.284 205.748 246.671C205.997 248.435 208.441 251.149 209.76 249.928C210.279 253.601 216.632 253.441 219.363 250.898C220.211 250.109 225.37 246.527 226.229 247.3C227.992 245.658 230.739 245.636 232.528 247.252C232.961 247.641 233.22 248.184 233.247 248.76C234.145 249.571 235.021 257.355 235.08 258.554C235.107 259.066 236.005 273.38 236.356 273.759C236.411 274.825 242.753 282.182 243.488 282.966C244.445 283.995 256.491 298.822 255.269 299.531C257.264 301.668 250.052 308.962 247.516 310.438C247.035 310.716 232.555 318.894 232.009 318.782C231.015 319.358 218.827 317.263 217.697 317.028C217.049 316.895 193.491 312.289 192.972 312.694C191.626 312.417 182.715 318.59 181.639 319.427C180.969 319.949 164.44 332.206 163.673 331.833C162.278 332.921 151.291 328.751 149.69 327.984C148.712 327.515 129.339 317.337 129.647 316.308V316.303Z" stroke="url(#paint16_radial_23_1288)" stroke-width="0.83632" stroke-miterlimit="10"/>
<path d="M136.936 310.774C135.416 310.044 136.379 302.548 136.855 300.943C137.168 299.898 139.212 290.398 138.255 289.849C138.709 288.335 135.67 285.354 134.286 284.566C133.156 283.92 129.317 280.546 129.945 279.421C128.312 278.488 132.151 268.502 133.059 266.871C133.659 265.794 141.385 253.846 142.526 254.348C143.391 252.791 150.815 254.545 152.464 255.264C153.302 255.632 162.218 258.964 162.915 258.389C164.126 258.917 173.004 252.551 174.021 251.714C174.794 251.074 186.705 242.048 187.576 242.549C188.695 241.622 193.485 243.328 194.751 244.058C195.383 244.426 200.444 247.721 200.547 248.435C201.466 248.963 202.234 250.898 202.38 251.937C202.65 253.841 205.191 256.123 206.608 254.801C206.997 257.557 212.366 256.875 214.415 254.966C215.329 254.113 219.628 251.426 220.557 252.258C221.877 251.026 223.942 251.01 225.283 252.22C225.748 252.641 226.029 253.228 226.062 253.846C226.737 254.454 227.5 262.467 227.543 263.368C227.57 263.917 228.316 274.814 228.695 275.22C228.733 276.019 235.426 283.611 235.978 284.198C237.01 285.307 245.964 296.961 244.65 297.723C246.143 299.328 238.552 306.072 236.648 307.176C236.135 307.474 225.083 313.637 224.499 313.515C223.753 313.947 211.009 311.627 210.166 311.451C209.468 311.307 191.582 307.906 191.02 308.338C190.014 308.13 180.872 314.672 180.066 315.301C179.341 315.866 166.646 325.089 165.819 324.689C164.775 325.505 153.562 320.952 152.361 320.376C151.312 319.87 136.622 311.878 136.952 310.774H136.936Z" stroke="url(#paint17_radial_23_1288)" stroke-width="0.83632" stroke-miterlimit="10"/>
<path d="M144.224 305.246C143.208 304.76 144.549 297.419 144.868 296.348C145.203 295.228 146.382 288.441 145.355 287.855C145.657 286.847 142.673 284.309 141.748 283.787C140.542 283.099 137.818 280.279 138.488 279.069C137.401 278.45 141.748 268.571 142.348 267.484C142.992 266.332 148.685 258.186 149.902 258.719C150.48 257.679 157.65 259.823 158.747 260.302C159.645 260.692 165.982 262.861 166.733 262.243C167.539 262.595 176.482 255.851 177.158 255.291C177.99 254.603 186.371 248.552 187.306 249.091C188.053 248.472 192.54 250.354 193.384 250.84C194.065 251.229 197.612 253.686 197.72 254.454C198.331 254.806 198.898 256.506 199.001 257.2C199.288 259.236 201.932 261.086 203.446 259.673C203.705 261.507 208.09 260.308 209.453 259.034C210.431 258.122 213.875 256.325 214.865 257.221C215.746 256.4 217.119 256.389 218.017 257.194C218.514 257.642 218.817 258.271 218.849 258.938C219.298 259.343 219.952 267.585 219.985 268.182C220.012 268.774 220.602 276.248 221.007 276.686C221.034 277.219 228.074 285.045 228.441 285.44C229.55 286.628 235.411 295.111 233.999 295.927C234.994 296.993 227.014 303.188 225.743 303.923C225.192 304.243 217.579 308.391 216.952 308.263C216.455 308.551 203.159 306.008 202.597 305.886C201.851 305.731 189.631 303.529 189.031 303.998C188.361 303.86 178.99 310.769 178.45 311.19C177.677 311.793 168.815 317.982 167.928 317.556C167.231 318.1 155.795 313.157 154.995 312.774C153.87 312.23 143.863 306.429 144.214 305.24L144.224 305.246Z" stroke="url(#paint18_radial_23_1288)" stroke-width="0.83632" stroke-miterlimit="10"/>
<path d="M151.512 299.718C151.004 299.472 152.723 292.291 152.886 291.752C153.242 290.558 153.556 286.485 152.464 285.856C152.615 285.35 149.679 283.259 149.214 282.998C147.928 282.263 146.321 279.997 147.035 278.707C146.489 278.398 151.344 268.636 151.647 268.092C152.334 266.86 155.989 262.521 157.292 263.086C157.579 262.569 164.5 265.09 165.046 265.33C166.003 265.746 169.76 266.749 170.56 266.087C170.966 266.263 179.968 259.146 180.309 258.863C181.196 258.133 186.056 255.046 187.051 255.622C187.424 255.313 191.609 257.371 192.031 257.616C192.756 258.031 194.794 259.642 194.907 260.463C195.215 260.639 195.583 262.105 195.632 262.451C195.94 264.627 198.676 266.039 200.298 264.536C200.428 265.453 203.823 263.731 204.51 263.091C205.553 262.121 208.138 261.214 209.197 262.169C209.636 261.758 210.328 261.753 210.771 262.158C211.306 262.638 211.62 263.305 211.658 264.019C211.885 264.221 212.431 272.693 212.442 272.991C212.474 273.621 212.901 277.678 213.334 278.142C213.344 278.408 220.736 286.469 220.92 286.666C222.098 287.93 224.866 293.245 223.369 294.12C223.866 294.653 215.497 300.293 214.864 300.661C214.274 301.002 210.101 303.14 209.43 302.996C209.181 303.14 195.335 300.368 195.053 300.309C194.258 300.144 187.705 299.147 187.067 299.643C186.732 299.574 177.135 306.851 176.865 307.064C176.038 307.709 171.009 310.865 170.063 310.412C169.717 310.684 158.055 305.358 157.66 305.166C156.459 304.59 151.134 300.97 151.512 299.707V299.718Z" stroke="url(#paint19_radial_23_1288)" stroke-width="0.83632" stroke-miterlimit="10"/>
<path d="M204.467 269.115L204.906 277.816C204.938 278.488 205.208 279.122 205.668 279.618L213.4 287.914C214.654 289.257 214.33 291.4 212.735 292.328L203.981 297.414C203.354 297.777 202.613 297.899 201.905 297.75L187.506 294.754C186.663 294.578 185.782 294.781 185.1 295.308L175.276 302.959C174.4 303.641 173.2 303.769 172.194 303.284L160.315 297.569C159.039 296.956 158.396 295.522 158.801 294.178L160.899 287.146C161.278 285.877 160.727 284.512 159.564 283.852L156.676 282.204C155.309 281.426 154.822 279.709 155.579 278.339L160.943 268.689C161.667 267.383 163.289 266.839 164.673 267.447L171.335 270.358C172.351 270.8 173.535 270.635 174.384 269.931L183.451 262.435C184.392 261.657 185.727 261.545 186.787 262.158L190.669 264.392C191.442 264.835 191.962 265.602 192.086 266.476L192.259 267.714C192.584 270.022 195.422 271.008 197.141 269.403L199.553 267.154C200.661 266.119 202.392 266.109 203.516 267.122C204.084 267.633 204.419 268.342 204.457 269.099L204.467 269.115Z" stroke="url(#paint20_radial_23_1288)" stroke-width="0.83632" stroke-miterlimit="10"/>
</g>
<defs>
<filter id="filter0_f_23_1288" x="3.73373" y="172.688" width="365.533" height="340.604" filterUnits="userSpaceOnUse" color-interpolation-filters="sRGB">
<feFlood flood-opacity="0" result="BackgroundImageFix"/>
<feBlend mode="normal" in="SourceGraphic" in2="BackgroundImageFix" result="shape"/>
<feGaussianBlur stdDeviation="43.4925" result="effect1_foregroundBlur_23_1288"/>
</filter>
<filter id="filter1_f_23_1288" x="49.879" y="0.106087" width="393.929" height="402.07" filterUnits="userSpaceOnUse" color-interpolation-filters="sRGB">
<feFlood flood-opacity="0" result="BackgroundImageFix"/>
<feBlend mode="normal" in="SourceGraphic" in2="BackgroundImageFix" result="shape"/>
<feGaussianBlur stdDeviation="57.0839" result="effect1_foregroundBlur_23_1288"/>
</filter>
<filter id="filter2_f_23_1288" x="42.0811" y="88.4571" width="408.203" height="369.891" filterUnits="userSpaceOnUse" color-interpolation-filters="sRGB">
<feFlood flood-opacity="0" result="BackgroundImageFix"/>
<feBlend mode="normal" in="SourceGraphic" in2="BackgroundImageFix" result="shape"/>
<feGaussianBlur stdDeviation="59.8022" result="effect1_foregroundBlur_23_1288"/>
</filter>
<linearGradient id="paint0_linear_23_1288" x1="-29.8675" y1="31.6543" x2="23.5301" y2="198.658" gradientUnits="userSpaceOnUse">
<stop stop-color="#01D396"/>
<stop offset="1" stop-color="#00BCD4"/>
</linearGradient>
<linearGradient id="paint1_linear_23_1288" x1="-71.2746" y1="33.1053" x2="53.0544" y2="189.807" gradientUnits="userSpaceOnUse">
<stop stop-color="#D81B60"/>
<stop offset="0.59346" stop-color="#84FFFF"/>
<stop offset="1" stop-color="#311B92"/>
</linearGradient>
<linearGradient id="paint2_linear_23_1288" x1="191.859" y1="180.457" x2="212.231" y2="353.425" gradientUnits="userSpaceOnUse">
<stop stop-color="#01D396"/>
<stop offset="0.668612" stop-color="#01F5FF"/>
<stop offset="1" stop-color="#FE8C43"/>
</linearGradient>
<radialGradient id="paint3_radial_23_1288" cx="0" cy="0" r="1" gradientUnits="userSpaceOnUse" gradientTransform="translate(199.574 287.571) rotate(90.0995) scale(137.406 193.806)">
<stop stop-color="white"/>
<stop offset="1" stop-color="white" stop-opacity="0"/>
</radialGradient>
<radialGradient id="paint4_radial_23_1288" cx="0" cy="0" r="1" gradientUnits="userSpaceOnUse" gradientTransform="translate(199.573 287.571) rotate(90.0995) scale(137.406 193.806)">
<stop stop-color="white"/>
<stop offset="1" stop-color="white" stop-opacity="0"/>
</radialGradient>
<radialGradient id="paint5_radial_23_1288" cx="0" cy="0" r="1" gradientUnits="userSpaceOnUse" gradientTransform="translate(199.574 287.571) rotate(90.0995) scale(137.406 193.806)">
<stop stop-color="white"/>
<stop offset="1" stop-color="white" stop-opacity="0"/>
</radialGradient>
<radialGradient id="paint6_radial_23_1288" cx="0" cy="0" r="1" gradientUnits="userSpaceOnUse" gradientTransform="translate(199.574 287.571) rotate(90.0995) scale(137.406 193.806)">
<stop stop-color="white"/>
<stop offset="1" stop-color="white" stop-opacity="0"/>
</radialGradient>
<radialGradient id="paint7_radial_23_1288" cx="0" cy="0" r="1" gradientUnits="userSpaceOnUse" gradientTransform="translate(199.575 287.571) rotate(90.0995) scale(137.406 193.806)">
<stop stop-color="white"/>
<stop offset="1" stop-color="white" stop-opacity="0"/>
</radialGradient>
<radialGradient id="paint8_radial_23_1288" cx="0" cy="0" r="1" gradientUnits="userSpaceOnUse" gradientTransform="translate(199.574 287.571) rotate(90.0995) scale(137.406 193.806)">
<stop stop-color="white"/>
<stop offset="1" stop-color="white" stop-opacity="0"/>
</radialGradient>
<radialGradient id="paint9_radial_23_1288" cx="0" cy="0" r="1" gradientUnits="userSpaceOnUse" gradientTransform="translate(199.575 287.571) rotate(90.0995) scale(137.406 193.806)">
<stop stop-color="white"/>
<stop offset="1" stop-color="white" stop-opacity="0"/>
</radialGradient>
<radialGradient id="paint10_radial_23_1288" cx="0" cy="0" r="1" gradientUnits="userSpaceOnUse" gradientTransform="translate(199.574 287.571) rotate(90.0995) scale(137.406 193.806)">
<stop stop-color="white"/>
<stop offset="1" stop-color="white" stop-opacity="0"/>
</radialGradient>
<radialGradient id="paint11_radial_23_1288" cx="0" cy="0" r="1" gradientUnits="userSpaceOnUse" gradientTransform="translate(199.574 287.571) rotate(90.0995) scale(137.406 193.806)">
<stop stop-color="white"/>
<stop offset="1" stop-color="white" stop-opacity="0"/>
</radialGradient>
<radialGradient id="paint12_radial_23_1288" cx="0" cy="0" r="1" gradientUnits="userSpaceOnUse" gradientTransform="translate(199.574 287.571) rotate(90.0995) scale(137.406 193.806)">
<stop stop-color="white"/>
<stop offset="1" stop-color="white" stop-opacity="0"/>
</radialGradient>
<radialGradient id="paint13_radial_23_1288" cx="0" cy="0" r="1" gradientUnits="userSpaceOnUse" gradientTransform="translate(199.574 287.571) rotate(90.0995) scale(137.406 193.806)">
<stop stop-color="white"/>
<stop offset="1" stop-color="white" stop-opacity="0"/>
</radialGradient>
<radialGradient id="paint14_radial_23_1288" cx="0" cy="0" r="1" gradientUnits="userSpaceOnUse" gradientTransform="translate(199.574 287.571) rotate(90.0995) scale(137.406 193.806)">
<stop stop-color="white"/>
<stop offset="1" stop-color="white" stop-opacity="0"/>
</radialGradient>
<radialGradient id="paint15_radial_23_1288" cx="0" cy="0" r="1" gradientUnits="userSpaceOnUse" gradientTransform="translate(199.574 287.571) rotate(90.0995) scale(137.406 193.806)">
<stop stop-color="white"/>
<stop offset="1" stop-color="white" stop-opacity="0"/>
</radialGradient>
<radialGradient id="paint16_radial_23_1288" cx="0" cy="0" r="1" gradientUnits="userSpaceOnUse" gradientTransform="translate(199.574 287.571) rotate(90.0995) scale(137.406 193.806)">
<stop stop-color="white"/>
<stop offset="1" stop-color="white" stop-opacity="0"/>
</radialGradient>
<radialGradient id="paint17_radial_23_1288" cx="0" cy="0" r="1" gradientUnits="userSpaceOnUse" gradientTransform="translate(199.574 287.571) rotate(90.0995) scale(137.406 193.806)">
<stop stop-color="white"/>
<stop offset="1" stop-color="white" stop-opacity="0"/>
</radialGradient>
<radialGradient id="paint18_radial_23_1288" cx="0" cy="0" r="1" gradientUnits="userSpaceOnUse" gradientTransform="translate(199.574 287.571) rotate(90.0995) scale(137.406 193.806)">
<stop stop-color="white"/>
<stop offset="1" stop-color="white" stop-opacity="0"/>
</radialGradient>
<radialGradient id="paint19_radial_23_1288" cx="0" cy="0" r="1" gradientUnits="userSpaceOnUse" gradientTransform="translate(199.574 287.571) rotate(90.0995) scale(137.406 193.806)">
<stop stop-color="white"/>
<stop offset="1" stop-color="white" stop-opacity="0"/>
</radialGradient>
<radialGradient id="paint20_radial_23_1288" cx="0" cy="0" r="1" gradientUnits="userSpaceOnUse" gradientTransform="translate(199.575 287.571) rotate(90.0995) scale(137.406 193.806)">
<stop stop-color="white"/>
<stop offset="1" stop-color="white" stop-opacity="0"/>
</radialGradient>
<clipPath id="clip0_23_1288">
<rect width="399.148" height="283.254" fill="white" transform="translate(0 145.944)"/>
</clipPath>
</defs>
</svg>
