<svg width="128" height="35" viewBox="0 0 128 35" fill="none" xmlns="http://www.w3.org/2000/svg">
<path d="M48.6805 9.66713C46.3068 9.66713 44.4511 11.0481 44.4511 13.0333C44.4511 15.0185 46.0047 15.6659 47.9468 16.0543L50.4067 16.4427C53.6435 16.9606 55.8876 18.4711 55.8876 22.0099C55.8876 25.7214 52.8666 27.8792 48.9826 27.8792C45.4869 27.8792 42.207 25.8077 41.7322 21.7941C41.6891 21.4489 41.948 21.1468 42.2933 21.1468H43.7606C44.0195 21.1468 44.2785 21.3626 44.3216 21.6215C44.6237 24.4698 46.8247 25.5919 48.9826 25.5919C51.3562 25.5919 53.2119 24.4267 53.2119 22.0531C53.2119 19.9384 51.7014 19.2047 49.7162 18.8163L47.2994 18.3848C43.9332 17.8237 41.8186 16.1838 41.8186 13.1197C41.8186 9.53766 44.9258 7.33667 48.6805 7.33667C51.6583 7.33667 54.9813 9.01978 55.6287 13.0333C55.6718 13.3786 55.4129 13.6807 55.0676 13.6807H53.514C53.2551 13.6807 52.9961 13.4649 52.953 13.206C52.5214 10.6597 50.5794 9.66713 48.6805 9.66713Z" fill="#FFEEDA"/>
<path d="M65.5547 11.868C69.1799 11.868 71.7261 13.8101 72.6324 16.9605C72.7187 17.3058 72.4598 17.6942 72.0714 17.6942H70.3883C70.1293 17.6942 69.9567 17.5216 69.8704 17.3058C69.223 15.4932 67.7989 14.5006 65.5547 14.5006C62.5338 14.5006 60.8507 16.9605 60.8507 19.9383C60.8507 22.873 62.5338 25.3761 65.5547 25.3761C67.7557 25.3761 69.223 24.3403 69.8704 22.5709C69.9567 22.3551 70.1725 22.1825 70.3883 22.1825H72.0714C72.4598 22.1825 72.7187 22.5277 72.5893 22.9161C71.6398 26.196 69.1367 28.0086 65.5116 28.0086C60.8507 28.0086 57.916 24.4266 57.916 19.9815C57.9592 15.4932 60.937 11.868 65.5547 11.868Z" fill="#FFEEDA"/>
<path d="M75.3945 25.3329H79.0197V15.2343H75.7829C75.4809 15.2343 75.2219 14.9753 75.2219 14.6732V13.2491C75.2219 12.947 75.4809 12.688 75.7829 12.688H80.1849C81.0912 12.688 81.868 13.4648 81.868 14.3711V14.7595C82.688 12.8175 84.4143 12.3428 87.09 12.3428C88.1257 12.3428 88.8162 12.5154 89.2046 12.6449C89.4204 12.7312 89.5499 12.947 89.5499 13.1627V14.6732C89.5499 15.0616 89.2046 15.3206 88.8162 15.1911C88.3415 15.0185 87.651 14.889 86.7879 14.889C83.9395 14.889 81.9112 16.8311 81.9112 20.2404V25.3329H86.5721C86.8742 25.3329 87.1331 25.5918 87.1331 25.8939V27.3181C87.1331 27.6202 86.8742 27.8791 86.5721 27.8791H75.3945C75.0924 27.8791 74.8335 27.6202 74.8335 27.3181V25.8939C74.8335 25.5918 75.0924 25.3329 75.3945 25.3329Z" fill="#FFEEDA"/>
<path d="M91.708 19.8952C91.708 15.4932 94.6427 11.868 99.3899 11.868C104.137 11.868 107.072 15.45 107.072 19.8952C107.072 24.2971 104.137 27.9223 99.3899 27.9223C94.5995 27.8791 91.708 24.2971 91.708 19.8952ZM99.3467 25.2897C102.411 25.2897 104.137 22.8298 104.137 19.852C104.137 16.9174 102.368 14.4143 99.3467 14.4143C96.2826 14.4143 94.5563 16.8742 94.5563 19.852C94.5563 22.8298 96.3258 25.2897 99.3467 25.2897Z" fill="#FFEEDA"/>
<path d="M113.372 25.4624H117.774C118.077 25.4624 118.336 25.7213 118.336 26.0234V27.3612C118.336 27.6633 118.077 27.9223 117.774 27.9223H111.215C110.913 27.9223 110.654 27.6633 110.654 27.3612V10.0123H108.453C108.151 10.0123 107.892 9.75335 107.892 9.45126V8.1134C107.892 7.81131 108.151 7.55237 108.453 7.55237H111.689C112.596 7.55237 113.372 8.32919 113.372 9.23548V25.4624Z" fill="#FFEEDA"/>
<path d="M123.082 25.4624H127.484C127.787 25.4624 128.045 25.7213 128.045 26.0234V27.3612C128.045 27.6633 127.787 27.9223 127.484 27.9223H120.925C120.623 27.9223 120.364 27.6633 120.364 27.3612V10.0123H118.163C117.86 10.0123 117.602 9.75335 117.602 9.45126V8.1134C117.602 7.81131 117.86 7.55237 118.163 7.55237H121.399C122.306 7.55237 123.082 8.32919 123.082 9.23548V25.4624Z" fill="#FFEEDA"/>
<path d="M33.0148 23.7793V3.10728C32.9716 1.38101 31.5906 0 29.8644 0H8.37238C3.71147 0.0863132 0 3.88409 0 8.54501C0 10.0986 0.431566 11.4797 1.07891 12.6449C1.63995 13.6375 2.50308 14.5438 3.32306 15.2343C3.582 15.4501 3.45253 15.3637 4.18619 15.7953C5.17879 16.3995 6.34402 16.7016 6.34402 16.7016V29.0444C6.38718 29.6486 6.43033 30.2096 6.60296 30.7275C7.07768 32.4538 8.28607 33.7916 9.92602 34.439C10.6165 34.6979 11.3933 34.8705 12.2133 34.9137L29.3465 35C32.7559 35 35.561 32.238 35.561 28.7854C35.561 26.7571 34.5684 24.9014 33.0148 23.7793Z" fill="#FFEEDA"/>
<path d="M33.4463 28.9149C33.36 31.1159 31.5474 32.8853 29.3464 32.8853L17.5215 32.8421C18.4709 31.7632 19.032 30.3391 19.032 28.7854C19.032 26.3687 17.6078 24.6855 17.6078 24.6855H29.3896C31.6337 24.6855 33.4894 26.5413 33.4894 28.7854L33.4463 28.9149Z" fill="#EBC28E"/>
<path d="M4.44513 13.508C3.06412 12.2133 2.11467 10.5302 2.11467 8.54501V8.32922C2.24414 4.96301 5.00617 2.20099 8.37238 2.11467H29.9075C30.4686 2.15783 30.9001 2.54624 30.9001 3.10728V21.3625C31.3748 21.4488 31.6338 21.5351 32.1085 21.6646C32.4969 21.7941 33.0148 22.0962 33.0148 22.0962V3.10728C32.9716 1.38101 31.5906 0 29.8644 0H8.37238C3.71147 0.0863132 0 3.88409 0 8.54501C0 11.2639 1.25154 13.5943 3.23675 15.1911C3.36621 15.3206 3.49568 15.4501 3.88409 15.4501C4.53144 15.4501 4.96301 14.9322 4.91985 14.4143C4.91985 13.9396 4.74723 13.767 4.44513 13.508Z" fill="#101010"/>
<path d="M29.3463 22.5709H12.4721C11.35 22.5709 10.4437 23.4771 10.4437 24.6424V27.0591C10.4869 28.1812 11.4363 29.1307 12.5584 29.1307H13.8099V27.0591H12.5584V24.6855C12.5584 24.6855 12.8605 24.6855 13.2489 24.6855C15.3636 24.6855 16.9604 26.6707 16.9604 28.7854C16.9604 30.6843 15.2341 33.0579 12.3858 32.8853C9.83951 32.7127 8.4585 30.4685 8.4585 28.7854V8.19971C8.4585 7.29342 7.68168 6.5166 6.77539 6.5166H5.09229V8.63127H6.34383V28.8286C6.25751 32.9284 9.27848 35 12.3858 35L29.3895 35.0431C32.7988 35.0431 35.604 32.2811 35.604 28.8286C35.5608 25.376 32.7988 22.5709 29.3463 22.5709ZM33.4462 28.9149C33.3599 31.1159 31.5473 32.8853 29.3463 32.8853L17.5214 32.8421C18.4708 31.7632 19.0319 30.339 19.0319 28.7854C19.0319 26.3686 17.6077 24.6855 17.6077 24.6855H29.3895C31.6336 24.6855 33.4893 26.5413 33.4893 28.7854L33.4462 28.9149Z" fill="#101010"/>
<path d="M24.8152 8.97655H12.084V6.90503H24.8152C25.3762 6.90503 25.8509 7.37975 25.8509 7.94079C25.8509 8.50182 25.4194 8.97655 24.8152 8.97655Z" fill="#101010"/>
<path d="M24.8152 18.9026H12.084V16.788H24.8152C25.3762 16.788 25.8509 17.2627 25.8509 17.8237C25.8509 18.4279 25.4194 18.9026 24.8152 18.9026Z" fill="#101010"/>
<path d="M27.0593 13.9396H12.084V11.825H27.0593C27.6204 11.825 28.0951 12.2997 28.0951 12.8607C28.0951 13.4649 27.6204 13.9396 27.0593 13.9396Z" fill="#101010"/>
</svg>
