<svg width="40" height="40" viewBox="0 0 40 40" fill="none" xmlns="http://www.w3.org/2000/svg">
<mask id="mask0_209_1337" style="mask-type:luminance" maskUnits="userSpaceOnUse" x="0" y="0" width="40" height="40">
<path d="M40 0H0V40H40V0Z" fill="white"/>
</mask>
<g mask="url(#mask0_209_1337)">
<path d="M20 40C31.0457 40 40 31.0457 40 20C40 8.9543 31.0457 0 20 0C8.9543 0 0 8.9543 0 20C0 31.0457 8.9543 40 20 40Z" fill="#009393"/>
<path fill-rule="evenodd" clip-rule="evenodd" d="M20.025 21.4297C23.4645 21.4297 26.339 20.8482 27.0415 20.0712C26.445 19.4122 24.2875 18.8932 21.5475 18.7512V20.3927C21.057 20.4182 20.547 20.4307 20.0245 20.4307C19.502 20.4307 18.992 20.4182 18.5005 20.3927V18.7512C15.7616 18.8932 13.6031 19.4122 13.0066 20.0712C13.7101 20.8482 16.5856 21.4297 20.025 21.4297ZM26.136 13.7032V15.9637H21.5475V17.5312C24.7705 17.6987 27.189 18.3877 27.207 19.2122V20.9312C27.189 21.7557 24.7705 22.4432 21.5475 22.6112V26.4582H18.501V22.6112C15.2781 22.4437 12.8606 21.7557 12.8426 20.9312V19.2122C12.8606 18.3877 15.2781 17.6987 18.501 17.5312V15.9637H13.9126V13.7032H26.136ZM12.1081 10.1057H28.216C28.601 10.1057 28.9555 10.3082 29.1475 10.6372L33.84 18.6952C34.083 19.1132 34.011 19.6407 33.664 19.9792L20.747 32.5882C20.328 32.9967 19.655 32.9967 19.237 32.5882L6.33608 19.9962C5.98158 19.6492 5.91458 19.1067 6.17608 18.6867L11.1926 10.6122C11.3881 10.2982 11.7346 10.1057 12.1081 10.1057Z" fill="white"/>
</g>
</svg>
