<svg width="40" height="41" viewBox="0 0 40 41" fill="none" xmlns="http://www.w3.org/2000/svg">
<path d="M20 40.5498C31.0457 40.5498 40 31.5955 40 20.5498C40 9.50411 31.0457 0.549805 20 0.549805C8.9543 0.549805 0 9.50411 0 20.5498C0 31.5955 8.9543 40.5498 20 40.5498Z" fill="white"/>
<path d="M20 0.549805C8.955 0.549805 0 9.5048 0 20.5498C0 31.5948 8.955 40.5498 20 40.5498C31.045 40.5498 40 31.5948 40 20.5498C40 9.5048 31.045 0.549805 20 0.549805ZM13.17 11.7115H26.83C29.3383 11.7115 30.9333 14.4248 29.6717 16.6115L21.24 31.2198C21.114 31.4371 20.9332 31.6175 20.7155 31.7428C20.4978 31.8683 20.2512 31.9341 20 31.9341C19.7488 31.9341 19.5022 31.8683 19.2845 31.7428C19.0668 31.6175 18.886 31.4371 18.76 31.2198L10.3317 16.6115C9.06833 14.4215 10.66 11.7115 13.17 11.7115ZM21.2433 14.2048V26.8381L23.08 23.2915L27.5067 15.3648C27.5745 15.2464 27.6098 15.1122 27.609 14.9758C27.6083 14.8394 27.5717 14.7055 27.5027 14.5878C27.4337 14.4701 27.3348 14.3727 27.2162 14.3055C27.0975 14.2382 26.9632 14.2035 26.8267 14.2048H21.2433ZM13.1667 14.2081C13.0305 14.2067 12.8964 14.2412 12.7779 14.3081C12.6594 14.3751 12.5606 14.4721 12.4916 14.5895C12.4226 14.7069 12.3858 14.8404 12.385 14.9765C12.3841 15.1126 12.4192 15.2466 12.4867 15.3648L16.9167 23.2881L18.7533 26.8381V14.2081H13.1667Z" fill="#57A5FF"/>
</svg>
